<svg width="195" height="169" viewBox="0 0 195 169" fill="none" xmlns="http://www.w3.org/2000/svg">
<path d="M1.13867 9.38987C1.13867 6.288 3.65324 3.77344 6.75512 3.77344H186.522C189.624 3.77344 192.139 6.28801 192.139 9.38988V161.157C192.139 164.259 189.624 166.773 186.522 166.773H6.75511C3.65323 166.773 1.13867 164.259 1.13867 161.157V9.38987Z" fill="url(#paint0_radial_310_2290)"/>
<path d="M13.407 0.0368285C17.3204 -0.0615208 22.4503 0.0436382 26.3489 0.187975C27.5707 0.232741 26.952 0.432847 27.7955 0.472759C29.4451 0.550562 30.9819 0.452422 32.612 0.545106C33.1523 0.576802 32.4798 0.89377 33.0463 0.919748C36.1505 1.05983 39.0872 0.979094 42.2319 1.04647C57.7213 1.3789 72.9471 1.49789 88.626 1.6423C93.7958 1.68965 100.08 1.97731 105.42 1.85151C106.043 1.83654 105.672 1.55833 105.79 1.5354C107.651 1.18435 107.032 1.74602 108.247 1.82064C113.067 2.11528 118.428 2.14091 123.067 2.03354C125.04 1.98704 123.061 1.43443 125.049 1.74461C125.187 1.76556 124.686 2.06101 125.227 2.09252C126.455 2.16339 128.783 2.11058 129.735 2.13399C131.568 2.1806 131.871 2.17763 133.606 2.181C135.976 2.18817 138.796 2.33503 141.339 2.26809C141.882 2.25292 141.163 1.95006 142.029 1.89852C142.896 1.84706 145.188 1.87274 145.961 1.94414C146.734 2.01557 146.405 2.25362 146.542 2.30818C147.668 2.76872 150.32 2.13087 150.661 2.1151C156.882 1.84632 162.217 2.20968 168.057 2.20864C172.49 2.20709 177.231 2.08713 181.449 2.10358C183.215 2.11088 184.886 2.13587 186.522 2.16399C190.341 2.16359 193.679 5.45115 193.65 9.38988C193.651 9.48014 193.651 9.5706 193.652 9.66128C193.654 10.1765 194.011 9.57274 194.015 10.2021C194.056 16.8882 194.017 23.5277 193.777 30.185C193.752 30.8526 193.44 29.9922 193.397 30.6592C193.14 34.7431 192.522 41.2048 193.884 43.6304C193.83 46.3967 193.776 49.7551 193.501 52.2299C193.325 53.8256 192.984 52.2757 193.129 54.2359C193.162 54.6779 193.46 54.1031 193.486 54.766C193.595 57.5573 193.498 60.6069 193.652 63.3682C193.684 63.9299 193.952 63.7765 194 63.9356C194.39 65.2731 193.745 67.4996 193.698 67.985C193.349 71.681 193.487 74.3801 193.478 77.8232C193.476 78.6223 193.835 77.6778 193.846 78.4466C193.897 82.4342 193.866 86.5649 193.707 90.4694C193.671 91.3379 193.365 90.5392 193.332 90.9543C193.19 92.7842 193.768 93.1899 193.643 94.945C193.618 95.315 193.356 95.1065 193.327 95.1741C192.876 96.2304 193.515 97.1482 193.529 97.4199C193.722 100.857 193.055 103.054 193.149 106.374C193.161 106.771 193.492 105.875 193.506 106.992C193.597 114.43 193.506 122.297 193.241 129.66C193.201 130.805 192.952 129.988 192.921 130.06C192.442 131.234 193.084 131.993 193.108 132.367C193.282 135.311 192.744 138.062 193.509 140.063C193.359 147.112 193.43 154.143 193.398 161.157C193.474 164.829 190.12 168.081 186.522 167.912C184.075 167.849 181.629 167.758 179.185 167.622C179.028 167.614 179.309 167.298 178.996 167.283C175.218 167.106 175.944 167.597 173.444 168.199C172.814 168.35 170.899 167.624 170.729 167.571C170.112 167.374 170.752 166.904 170.545 166.866C168.835 166.568 169.113 168.124 166.805 168.124C166.733 168.122 167.036 167.835 166.842 167.807C166.241 167.717 165.644 167.831 165.055 167.733C163.707 167.505 163.227 166.748 161.168 167.188C160.908 167.246 161.305 168.128 159.245 168.087C158.423 168.069 154.787 168.084 153.767 168.027C152.749 167.97 153.448 167.686 153.376 167.673C150.633 167.297 151.673 167.141 150.299 166.584C148.925 166.03 149.306 167.353 148.746 167.5C148.185 167.648 146.174 167.337 145.679 167.23C145.186 167.122 145.802 166.941 145.362 166.88C142.45 166.481 144.084 167.537 143.125 167.747C140.862 168.244 139.1 167.263 137.029 167.166C136.469 167.14 136.926 167.364 136.427 167.385C134.451 167.465 133.262 167.158 131.014 167.439C130.646 167.485 128.828 168.075 127.652 167.642C127.485 167.58 127.959 167.335 127.116 167.28C125.858 167.198 123.591 167.145 122.239 167.226C121.24 167.287 122.385 167.69 121.128 167.565C120.569 167.509 121.604 167.273 120.555 167.188C119.511 167.102 116.842 167.113 115.826 167.121C114.812 167.129 115.367 167.435 115.285 167.455C114.79 167.573 112.844 167.721 112.672 167.72C103.999 167.758 96.002 167.242 87.5582 167.413C86.8955 167.426 87.3369 167.748 87.2358 167.753C84.9673 167.888 86.7559 167.032 85.1712 166.745C85.4002 167.399 84.4648 167.28 82.8668 167.352C82.0968 167.387 82.5161 167.64 82.4459 167.666C81.304 168.051 80.5088 167.554 80.304 167.453C79.5477 167.079 78.7247 167.52 78.2101 167.271C77.6957 167.022 78.8795 166.655 77.3469 166.659C76.9172 166.894 78.0549 167.505 76.8914 167.605C72.5013 167.98 64.3065 167.5 60.7766 167.45C57.2539 167.4 56.116 167.443 54.0633 167.359C50.3553 167.206 51.7142 167.66 49.4119 167.867C47.1028 168.075 48.2253 166.958 47.8934 166.718C47.5675 166.478 47.2118 166.725 46.8064 166.593C46.4025 166.461 47.2771 166.298 46.3269 166.248C45.3762 166.199 42.7771 166.626 42.4401 166.877C41.7277 167.409 42.899 167.967 40.3834 167.771C40.2388 167.759 40.7083 167.466 40.1544 167.436C35.7544 167.21 31.1834 167.196 26.7889 166.996C26.1846 166.968 26.725 166.641 26.3733 166.621C22.7105 166.412 24.0198 166.963 22.0123 167.575C22.463 166.761 21.3529 166.262 18.573 166.258C16.9019 166.254 17.1897 166.61 16.1088 166.861C15.7845 166.936 14.6021 166.692 14.3878 166.859C13.6812 167.406 14.7951 168.018 11.9289 167.775C11.8032 167.763 12.2036 167.464 11.7691 167.446C9.36793 167.344 8.77395 167.748 6.75511 167.91C6.34464 167.937 5.87732 167.923 5.35132 167.823C2.93259 167.592 -0.100825 164.257 0.236796 161.157C0.263446 160.563 0.2844 160 0.295053 159.492C1.21068 159.549 1.00101 156.989 0.369705 155.951C0.395551 154.193 0.359862 152.293 0.447122 150.594C0.476871 150.009 0.741969 150.393 0.770613 150.319C1.21995 149.188 0.605758 148.424 0.581679 148.044C0.347614 143.93 0.813121 140.579 0.358185 136.653C0.341799 136.514 -0.294222 136.288 0.170172 135.238C0.202184 135.17 0.491562 136.467 0.51394 134.62C0.536367 132.773 0.877321 129.291 0.582601 126.727C0.511649 126.106 -0.00467134 124.536 0.398736 123.277C0.453516 123.109 0.635928 123.293 0.737434 123.05C1.06087 122.267 0.418013 121.84 0.964155 120.919C1.51027 119.999 1.91927 118.084 1.54248 115.498C1.53152 115.415 1.02199 114.803 1.03005 113.99C1.04335 112.692 1.14949 110.849 1.14618 109.493C1.1444 108.844 0.828011 109.259 0.822224 109.147C0.64493 104.783 0.926991 101.677 1.04941 97.0013C1.07247 96.1443 0.641024 93.6814 0.982127 92.0223C1.35553 90.2004 2.90882 92.0725 2.53876 87.885C2.39074 86.196 0.420112 84.0577 1.4411 81.0225C1.1881 75.1358 1.71064 69.6919 1.3494 63.7888C1.33339 63.5234 0.783403 62.684 0.790889 62.0599C0.803066 61.1334 1.06012 60.6248 1.07705 59.9633C1.15448 57.1913 0.934555 54.6545 0.968763 51.9818C0.981192 50.9672 1.24698 51.3219 1.26184 50.1117C1.27645 48.9022 0.92645 48.0957 1.09549 46.4566C1.22433 45.2188 1.93972 43.9811 2.02311 42.338C1.31746 42.2754 1.33199 41.1469 1.14572 39.1412C1.10957 38.7557 0.86397 39.1691 0.834205 38.9867C0.707621 38.2444 0.911173 37.5576 0.773378 36.8528C0.740284 36.6814 0.4993 36.6733 0.458642 36.5331C0.103748 35.3413 0.645817 33.3778 0.740199 33.0406C1.09864 31.7481 0.785215 31.1441 0.926368 30.1528C1.0675 29.163 1.24393 30.6429 1.32958 29.4867C1.50673 27.0903 1.46781 24.0111 1.47888 21.5772C1.48182 20.6061 1.16014 21.2687 1.15309 21.1297C1.0715 19.1216 1.41367 17.0908 0.772917 15.9774C2.42968 14.5851 0.61222 14.7665 0.943879 11.8961C0.970704 11.67 1.75417 11.3824 1.86919 12.2504C1.98411 13.1184 1.7392 14.4348 1.9185 15.6391C1.96058 15.9243 2.69474 17.5581 2.73921 17.781C3.08677 19.5271 1.91599 19.7745 1.85168 19.8669C1.15772 20.9145 1.94864 22.9109 2.00329 23.4367C2.25371 25.8419 2.08905 27.8853 2.2678 29.897C2.38332 31.2127 3.15023 31.3414 3.12675 32.3746C3.04917 35.8089 1.97932 37.0078 2.90695 40.2441C3.10479 40.938 3.943 40.2484 3.28389 42.735C3.24234 42.8912 2.63938 44.7373 3.02077 45.8039C3.06886 45.9379 3.31314 45.9336 3.33366 46.1103C3.4664 47.2943 3.27179 48.0839 3.365 49.3737C3.4582 50.6634 3.59715 52.2143 3.5143 53.6868C3.46475 54.5742 3.00962 55.7129 2.89819 56.1377C2.5772 57.3372 3.10349 58.6234 2.71479 59.3665C2.32412 60.1159 1.73084 58.6509 1.47842 60.616C2.11309 60.6887 2.76451 60.8559 3.40278 60.9729C3.38044 65.2794 3.17521 69.5167 3.20325 73.8376C3.20736 74.3733 3.54856 73.8254 3.56176 74.3997C3.61597 76.8225 3.37274 78.9388 3.4696 81.4514C3.54588 83.3963 3.90714 85.529 3.99815 87.5627C3.27192 88.8049 3.51846 91.8227 3.45209 94.015C3.42916 94.7829 3.23519 94.7316 3.17191 95.2777C2.93788 97.3381 3.57966 96.3726 3.68065 96.9374C4.1117 99.3608 2.65908 99.5682 2.69497 102.425C2.69638 102.577 3.47069 104.427 3.51891 104.682C3.83333 106.301 3.2494 104.95 3.19219 105.963C3.08764 107.813 2.90272 109.099 3.12952 111.27C3.1967 111.903 3.67931 113.421 3.30601 114.651C3.25713 114.812 3.00119 114.723 2.98621 114.853C2.73636 117.209 3.54055 117.271 3.81291 118.617C4.08521 119.964 3.53006 122.044 3.37006 122.467C2.95616 123.574 3.19318 121.618 3.15256 121.558C2.66918 120.854 2.75241 122.371 2.71156 123.53C1.92305 123.698 1.97038 125.318 2.67239 124.731C2.74907 124.664 2.67554 123.763 2.71156 123.53C3.4852 124.547 3.58428 126.328 2.86133 128.296C2.52249 129.217 2.12742 128.346 2.27194 131.144C2.33719 132.413 2.88012 131.923 3.02814 133.043C3.36587 135.603 2.8594 138.929 2.9392 141.568C2.96817 142.526 3.26537 141.593 3.29541 142.247C3.37607 143.984 3.15307 145.516 3.2673 147.261C3.27803 147.419 3.58913 147.033 3.5931 147.575C3.62923 151.688 3.42996 155.269 3.42444 159.564C3.42388 160.025 3.43194 160.568 3.44445 161.157C3.42835 162.422 4.51795 163.679 5.38889 164.048C5.79121 164.252 6.24976 164.396 6.75511 164.435C9.89154 164.579 13.26 164.84 15.7625 164.754C17.838 164.683 17.3826 164.372 18.272 164.16C19.9881 163.749 23.0258 164.485 23.4349 164.599C23.4474 164.603 21.6614 164.676 22.6143 164.836C23.1684 165.169 23.4147 164.601 23.4349 164.599C23.7035 164.673 27.2713 164.743 27.9797 164.684C28.3647 164.651 28.1493 164.357 28.35 164.345C33.1207 164.081 37.8998 164.007 42.7385 164.144C42.8236 164.15 42.6953 164.48 42.8956 164.49C45.6969 164.637 47.4905 164.233 49.8008 163.994C52.1107 163.754 53.9427 163.834 55.31 164.401C57.053 164.329 59.5535 164.58 60.9924 164.731C62.4313 164.883 62.6321 164.241 62.7587 164.229C66.7076 163.823 68.9903 164.19 73.0871 164.247C75.0349 164.275 78.8984 164.182 81.0073 164.112C82.674 164.056 83.6781 164.206 85.2138 164.11C85.4216 164.097 85.2117 163.811 85.2751 163.8C86.989 163.458 86.1653 164.157 86.5192 164.282C87.8021 164.735 88.5948 164.977 90.7896 164.764C91.2959 164.715 92.7706 163.709 93.6934 163.65C94.8933 163.575 94.4404 163.936 95.6968 163.849C95.8043 163.841 95.7819 163.619 96.5573 163.629C100.157 163.671 104.081 163.801 107.821 163.778C108.332 163.776 107.677 163.423 108.415 163.414C111.879 163.373 115.675 163.386 119.05 163.551C119.88 163.593 119.36 163.84 119.54 163.913C120.647 164.357 122.217 163.712 122.476 163.7C128.654 163.39 133.383 163.973 139.68 163.696C140.023 163.679 142.661 162.988 143.839 163.581C143.919 163.62 145.084 164.227 146.114 163.812C146.178 163.786 145.452 163.474 146.718 163.506C147.985 163.537 150.023 163.329 151.764 163.672C152.315 163.78 153.618 164.385 155.262 163.903C155.369 163.869 157.907 162.778 158.813 163.531C158.96 163.655 158.806 164.451 160.768 164.043C161.143 163.964 160.463 163.786 161.45 163.675C162.964 163.504 164.969 163.718 166.829 163.363C167.154 163.3 168.535 162.759 169.642 163.17C169.816 163.234 169.486 163.5 170.071 163.53C172.853 163.672 175.766 163.495 178.591 163.678C179.591 163.743 179.08 164.173 180.123 164.288C181.166 164.403 183.267 164.514 184.358 164.318C185.45 164.121 184.258 163.436 185.893 163.381C186.103 163.374 186.313 163.368 186.522 163.362C187.683 163.299 188.682 162.321 188.722 161.157C188.798 157.227 188.936 153.301 188.969 149.358C188.978 148.305 188.733 149.178 188.728 147.626C188.71 141.906 188.48 132.029 189.001 127.065C189.418 123.088 189.736 128.093 189.905 125.054C189.986 123.587 189.19 122.001 189.165 121.647C188.91 118.188 189.263 115.784 189.155 112.671C189.132 112.029 188.81 112.659 188.794 112.112C188.738 110.243 188.882 108.279 188.856 106.494C188.843 105.692 188.597 105.84 188.616 105.103C188.658 103.339 188.762 101.779 188.993 100.06C189.014 99.9032 189.321 100.96 189.332 99.655C189.35 97.5429 189.578 94.9213 189.342 92.4914C189.271 91.7704 188.708 91.7422 189.097 90.1923C189.178 89.8673 189.855 90.282 189.27 88.4767C189.173 88.1731 188.385 85.1404 188.893 83.6522C189.027 83.2595 189.58 82.2574 189.493 81.3904C189.48 81.2728 189.177 81.7438 189.147 81.0254C189.049 78.4934 189.081 75.8397 188.986 73.2384C188.96 72.5438 188.647 73.5784 188.618 72.5431C188.539 69.6961 188.619 66.1416 188.717 63.3575C188.754 62.3311 189.013 63.0406 189.041 62.9659C189.501 61.7649 188.881 61.0548 188.845 60.6562C188.628 58.1771 188.919 56.2893 188.842 54.0041C188.822 53.3735 188.526 53.8207 188.5 53.6951C188.242 52.3932 188.773 53.363 188.832 52.5389C188.997 50.2303 188.974 47.6567 188.936 45.322C188.922 44.4645 188.579 45.4283 188.57 44.6587C188.511 40.1036 188.544 35.3683 188.733 30.9229C188.769 30.0859 189.033 30.6125 189.093 30.4381C189.515 29.2357 188.94 27.4736 188.885 27.0681C188.635 25.2245 188.868 24.5084 188.824 22.8802C188.71 18.6972 188.699 13.9977 188.728 9.38988C188.782 8.17336 187.675 7.08798 186.522 7.09298C185.501 7.07981 184.509 7.06671 183.554 7.05456C173.77 6.93167 166.179 6.68063 156.849 6.74582C156.256 6.74963 156.854 7.10069 156.343 7.10848C149.744 7.19311 143.247 7.05593 136.635 7.15733C136.092 7.16502 136.874 7.49783 136.003 7.52137C134.217 7.57199 131.954 7.5539 130.148 7.44764C129.267 7.39644 130.448 7.11086 129.562 7.06516C127.497 6.9581 125.283 6.93439 123.163 6.98775C122.26 7.01118 123.622 7.35155 122.449 7.35548C114.457 7.38924 106.609 7.44786 98.5336 7.0071C97.9799 6.97683 97.4942 6.28506 96.3171 6.41772C96.2284 6.6097 96.2332 6.83554 96.1945 7.04074C84.5613 7.15128 73.0468 6.91146 61.3809 6.87439C60.8891 6.8729 61.7391 7.23944 60.7869 7.23843C55.2754 7.23301 49.9234 7.33455 44.2858 6.97024C43.7265 6.93461 44.0135 6.28978 42.3651 6.38731C42.0743 6.4051 39.5917 6.4911 38.9498 6.63108C38.8626 6.65219 39.3155 6.95317 38.5155 6.96194C33.8665 7.00765 28.9945 6.93893 24.3535 6.75504C23.6045 6.72478 24.4022 6.40426 23.8687 6.37993C20.0844 6.20979 15.9681 6.45344 12.3521 6.16243C9.93159 5.96648 10.8277 5.41244 9.54151 4.86708C9.35959 4.79014 7.86076 4.77795 7.78325 4.46064C7.58426 3.66276 8.31025 2.78908 8.01236 1.93861C7.94942 1.75542 5.9421 1.95272 7.13056 1.51005C7.21359 1.48042 8.66891 1.3335 9.02735 1.18333C9.27691 1.07951 8.8272 0.756812 9.33638 0.623905C9.84552 0.491123 10.405 0.761625 11.2492 0.605473C12.0929 0.447388 11.7219 0.0802844 13.407 0.0368285ZM67.4713 165.41C68.8037 165.718 69.0003 164.589 67.5593 164.86C67.4895 164.874 67.4026 165.395 67.4713 165.41ZM2.32356 69.4925C1.82555 71.2344 2.55782 72.4263 2.94243 71.1975C3.32663 69.9689 2.47452 68.9618 2.32356 69.4925ZM1.95997 51.4304C1.56732 53.4661 3.1684 53.7866 2.84474 51.6062C2.82645 51.4794 1.98277 51.3114 1.95997 51.4304ZM15.5063 4.71179C15.4879 4.69679 14.4105 4.68218 14.3847 4.69704C13.811 5.05563 15.9654 5.08461 15.5063 4.71179ZM1.56413 33.5068C1.34755 34.1423 1.59757 35.9721 1.86689 35.1824C2.08355 34.5468 1.83355 32.7153 1.56413 33.5068ZM136.973 166.615C136.994 166.632 137.767 166.647 137.751 166.552C137.699 166.246 136.624 166.332 136.973 166.615ZM4.53175 4.6773C2.60595 5.53682 1.58748 7.13071 1.10383 7.67323C0.859758 7.94677 0.698564 7.94974 0.712997 7.52559C0.740638 7.11795 0.944782 6.21743 1.89173 5.16365C2.24671 4.79689 1.93191 5.26573 1.73762 5.73506C1.54054 6.20819 1.44672 6.65117 1.80471 6.17506C3.11625 4.61751 4.30106 2.99212 6.71313 3.31981C6.92075 3.36434 6.31866 3.55515 5.74295 3.87435C5.15629 4.18288 4.63386 4.62954 4.52585 4.68213C4.52781 4.68052 4.52978 4.67891 4.53175 4.6773ZM68.2386 166.766C68.2652 166.781 69.3345 166.795 69.3601 166.781C69.9392 166.422 67.7851 166.393 68.2386 166.766ZM182.046 167.313C182.105 167.345 184.587 167.375 184.668 167.346C185.962 166.759 180.945 166.698 182.046 167.313ZM0.319476 159.449C-0.0411288 158.282 -0.083586 156.886 0.369244 155.956C0.345205 157.116 0.341664 158.283 0.319476 159.449Z" fill="#250000"/>
<g filter="url(#filter0_d_310_2290)">
<path d="M68.9755 88.76L99.7126 58.5151C106.503 51.8335 117.512 51.8335 124.302 58.5151C131.092 65.1966 131.092 76.0295 124.302 82.711L93.5651 112.956C86.7749 119.638 75.7657 119.638 68.9755 112.956C62.1853 106.274 62.1853 95.4416 68.9755 88.76ZM108.653 92.0608L121.229 79.6865C126.321 74.6754 126.321 66.5507 121.229 61.5396C116.136 56.5284 107.879 56.5284 102.786 61.5396L90.2107 73.9138L108.653 92.0608Z" fill="#FCFFBA"/>
</g>
<defs>
<filter id="filter0_d_310_2290" x="52.6391" y="41.5056" width="92.5267" height="91.4798" filterUnits="userSpaceOnUse" color-interpolation-filters="sRGB">
<feFlood flood-opacity="0" result="BackgroundImageFix"/>
<feColorMatrix in="SourceAlpha" type="matrix" values="0 0 0 0 0 0 0 0 0 0 0 0 0 0 0 0 0 0 127 0" result="hardAlpha"/>
<feOffset dx="2.26382" dy="1.50922"/>
<feGaussianBlur stdDeviation="6.75374"/>
<feComposite in2="hardAlpha" operator="out"/>
<feColorMatrix type="matrix" values="0 0 0 0 1 0 0 0 0 1 0 0 0 0 1 0 0 0 0.6 0"/>
<feBlend mode="normal" in2="BackgroundImageFix" result="effect1_dropShadow_310_2290"/>
<feBlend mode="normal" in="SourceGraphic" in2="effect1_dropShadow_310_2290" result="shape"/>
</filter>
<radialGradient id="paint0_radial_310_2290" cx="0" cy="0" r="1" gradientTransform="matrix(-81.1981 81.5 -95.5 -94.7751 96.6387 85.2734)" gradientUnits="userSpaceOnUse">
<stop stop-color="#B89726"/>
<stop offset="1" stop-color="#390A04"/>
</radialGradient>
</defs>
</svg>
