<svg width="196" height="168" viewBox="0 0 196 168" fill="none" xmlns="http://www.w3.org/2000/svg">
<path d="M1.13867 9.38988C1.13867 6.288 3.65324 3.77344 6.75512 3.77344H187.522C190.624 3.77344 193.139 6.28801 193.139 9.38988V160.157C193.139 163.259 190.624 165.773 187.522 165.773H6.75511C3.65323 165.773 1.13867 163.259 1.13867 160.157V9.38988Z" fill="url(#paint0_radial_310_2296)"/>
<path d="M13.407 0.0368285C17.3204 -0.0615208 22.4503 0.0436382 26.3489 0.187975C27.5707 0.232741 26.952 0.432847 27.7955 0.472759C29.4451 0.550562 30.9819 0.452422 32.612 0.545106C33.1523 0.576802 32.4798 0.89377 33.0463 0.919748C36.1505 1.05983 39.0872 0.979094 42.2319 1.04647C57.7213 1.3789 72.9471 1.49789 88.626 1.6423C93.7958 1.68965 100.08 1.97731 105.42 1.85151C106.043 1.83654 105.672 1.55833 105.79 1.5354C107.651 1.18435 107.032 1.74602 108.247 1.82064C113.067 2.11528 118.428 2.14091 123.067 2.03354C125.04 1.98704 123.061 1.43443 125.049 1.74461C125.187 1.76556 124.686 2.06101 125.227 2.09252C126.455 2.16339 128.783 2.11058 129.735 2.13399C131.568 2.1806 131.871 2.17763 133.606 2.181C135.976 2.18817 138.796 2.33503 141.339 2.26809C141.882 2.25292 141.163 1.95006 142.029 1.89852C142.896 1.84706 145.188 1.87274 145.961 1.94414C146.734 2.01557 146.405 2.25362 146.542 2.30818C147.668 2.76872 150.32 2.13087 150.661 2.1151C156.882 1.84632 162.217 2.20968 168.057 2.20864C172.49 2.20709 177.231 2.08713 181.449 2.10358C183.575 2.11237 185.565 2.14682 187.522 2.18151C190.97 2.18895 194.135 4.8791 194.593 8.46891C194.662 9.12361 194.955 8.30773 195.01 9.14C195.014 9.22302 195.015 9.30633 195.016 9.38988C195.055 16.0125 195.015 22.5901 194.777 29.185C194.752 29.8526 194.44 28.9922 194.397 29.6592C194.14 33.7431 193.522 40.2048 194.884 42.6304C194.83 45.3967 194.776 48.7551 194.501 51.2299C194.325 52.8255 193.984 51.2757 194.129 53.2359C194.162 53.6779 194.46 53.1031 194.486 53.766C194.595 56.5573 194.498 59.6069 194.652 62.3682C194.684 62.9298 194.952 62.7765 195 62.9356C195.39 64.2731 194.745 66.4996 194.698 66.985C194.349 70.681 194.487 73.3801 194.478 76.8232C194.476 77.6223 194.835 76.6778 194.846 77.4466C194.897 81.4342 194.866 85.5649 194.707 89.4694C194.671 90.3379 194.365 89.5392 194.332 89.9543C194.19 91.7843 194.768 92.1899 194.643 93.945C194.618 94.315 194.356 94.1065 194.327 94.1741C193.876 95.2304 194.515 96.1482 194.529 96.4199C194.722 99.8567 194.055 102.054 194.149 105.374C194.161 105.771 194.492 104.875 194.506 105.992C194.597 113.43 194.506 121.297 194.241 128.66C194.201 129.805 193.952 128.988 193.921 129.06C193.442 130.234 194.084 130.993 194.108 131.367C194.282 134.311 193.744 137.062 194.509 139.063C194.359 146.112 194.43 153.143 194.398 160.157C194.474 163.829 191.12 167.081 187.522 166.912C185.075 166.849 182.629 166.758 180.185 166.622C180.028 166.614 180.309 166.298 179.996 166.283C176.218 166.106 176.944 166.597 174.444 167.199C173.814 167.35 171.899 166.624 171.729 166.571C171.112 166.374 171.752 165.904 171.545 165.866C169.835 165.568 170.113 167.124 167.805 167.124C167.733 167.122 168.036 166.835 167.842 166.807C167.241 166.717 166.644 166.831 166.055 166.733C164.707 166.505 164.227 165.748 162.168 166.188C161.908 166.246 162.305 167.128 160.245 167.087C159.423 167.069 155.787 167.084 154.767 167.027C153.749 166.97 154.448 166.686 154.376 166.673C151.633 166.297 152.673 166.141 151.299 165.584C149.925 165.03 150.306 166.353 149.746 166.5C149.185 166.648 147.174 166.337 146.679 166.23C146.186 166.122 146.802 165.941 146.362 165.88C143.45 165.481 145.084 166.537 144.125 166.747C141.862 167.244 140.1 166.263 138.029 166.166C137.469 166.14 137.926 166.364 137.427 166.385C135.451 166.465 134.262 166.158 132.014 166.439C131.646 166.485 129.828 167.075 128.652 166.642C128.485 166.58 128.959 166.335 128.116 166.28C126.858 166.198 124.591 166.145 123.239 166.226C122.24 166.287 123.385 166.69 122.128 166.565C121.569 166.509 122.604 166.273 121.555 166.188C120.511 166.102 117.842 166.113 116.826 166.121C115.812 166.129 116.367 166.435 116.285 166.455C115.79 166.573 113.844 166.721 113.672 166.72C104.999 166.758 97.002 166.242 88.5582 166.413C87.8955 166.426 88.3369 166.748 88.2358 166.753C85.9673 166.888 87.7559 166.032 86.1712 165.745C86.4002 166.399 85.4647 166.28 83.8668 166.352C83.0968 166.387 83.5161 166.64 83.4459 166.666C82.304 167.051 81.5088 166.554 81.304 166.453C80.5477 166.079 79.7247 166.52 79.2101 166.271C78.6958 166.022 79.8795 165.655 78.3469 165.659C77.9172 165.894 79.055 166.505 77.8914 166.605C73.5013 166.98 65.3065 166.5 61.7766 166.45C58.2539 166.4 57.116 166.443 55.0633 166.359C51.3553 166.206 52.7142 166.66 50.4119 166.867C48.1028 167.075 49.2253 165.958 48.8934 165.718C48.5676 165.478 48.2117 165.725 47.8064 165.593C47.4025 165.461 48.2771 165.298 47.3269 165.248C46.3762 165.199 43.777 165.626 43.4401 165.877C42.7277 166.409 43.899 166.967 41.3835 166.771C41.2388 166.759 41.7083 166.466 41.1544 166.436C36.7544 166.21 32.1835 166.196 27.7889 165.996C27.1847 165.968 27.725 165.641 27.3733 165.621C23.7105 165.412 25.0198 165.963 23.0123 166.575C23.463 165.761 22.3529 165.262 19.573 165.258C17.9019 165.254 18.1896 165.61 17.1088 165.861C16.7845 165.936 15.6021 165.692 15.3878 165.859C14.6813 166.406 15.795 167.018 12.9289 166.775C12.8032 166.763 13.2036 166.464 12.7691 166.446C10.0127 166.329 9.6378 166.878 6.75511 166.964C6.68878 166.965 6.62149 166.966 6.55326 166.965C5.23193 166.978 3.38208 166.348 2.10948 164.982C0.803573 163.647 0.202676 161.705 0.276606 160.157C0.284334 159.927 0.290595 159.705 0.295053 159.492C1.21068 159.549 1.00101 156.989 0.369705 155.951C0.395551 154.193 0.359862 152.293 0.447122 150.594C0.476871 150.009 0.741969 150.393 0.770613 150.319C1.21995 149.188 0.605758 148.424 0.581679 148.044C0.347614 143.93 0.813121 140.579 0.358185 136.653C0.341799 136.514 -0.294222 136.288 0.170172 135.238C0.202184 135.17 0.491562 136.467 0.51394 134.62C0.536367 132.773 0.877321 129.291 0.582601 126.727C0.511649 126.106 -0.00467134 124.536 0.398736 123.277C0.453516 123.109 0.635928 123.293 0.737434 123.05C1.06087 122.267 0.418013 121.84 0.964155 120.919C1.51027 119.999 1.91927 118.084 1.54248 115.498C1.53152 115.415 1.02199 114.803 1.03005 113.99C1.04335 112.692 1.14949 110.849 1.14618 109.493C1.1444 108.844 0.828011 109.259 0.822224 109.147C0.64493 104.783 0.926991 101.677 1.04941 97.0014C1.07247 96.1443 0.641024 93.6814 0.982127 92.0223C1.35553 90.2004 2.90882 92.0725 2.53876 87.885C2.39074 86.196 0.420112 84.0577 1.4411 81.0225C1.1881 75.1358 1.71064 69.6919 1.3494 63.7888C1.33339 63.5234 0.783403 62.684 0.790889 62.0599C0.803066 61.1334 1.06012 60.6248 1.07705 59.9633C1.15448 57.1912 0.934555 54.6545 0.968763 51.9818C0.981192 50.9671 1.24698 51.322 1.26184 50.1117C1.27645 48.9022 0.92645 48.0957 1.09549 46.4566C1.22433 45.2188 1.93972 43.9811 2.02311 42.338C1.31746 42.2754 1.33199 41.1469 1.14572 39.1412C1.10957 38.7557 0.86397 39.1691 0.834205 38.9867C0.707621 38.2445 0.911173 37.5576 0.773378 36.8528C0.740284 36.6813 0.4993 36.6733 0.458642 36.5331C0.103748 35.3413 0.645817 33.3778 0.740199 33.0406C1.09864 31.7481 0.785215 31.1441 0.926368 30.1527C1.0675 29.163 1.24393 30.6429 1.32958 29.4867C1.50673 27.0903 1.46781 24.0111 1.47888 21.5772C1.48182 20.6061 1.16014 21.2686 1.15309 21.1297C1.0715 19.1216 1.41367 17.0909 0.772917 15.9774C2.42968 14.5851 0.61222 14.7665 0.943879 11.8961C0.970704 11.67 1.75417 11.3824 1.86919 12.2504C1.98411 13.1184 1.7392 14.4347 1.9185 15.6391C1.96058 15.9243 2.69474 17.5581 2.73921 17.781C3.08677 19.5271 1.91599 19.7745 1.85168 19.8669C1.15772 20.9145 1.94864 22.911 2.00329 23.4367C2.25371 25.8419 2.08905 27.8853 2.2678 29.897C2.38332 31.2127 3.15023 31.3414 3.12675 32.3746C3.04917 35.809 1.97932 37.0078 2.90695 40.2441C3.10479 40.938 3.943 40.2484 3.28389 42.735C3.24234 42.8912 2.63938 44.7373 3.02077 45.8039C3.06886 45.9379 3.31314 45.9337 3.33366 46.1103C3.4664 47.2943 3.27179 48.0839 3.365 49.3738C3.4582 50.6634 3.59715 52.2143 3.5143 53.6868C3.46475 54.5742 3.00962 55.7129 2.89819 56.1377C2.5772 57.3373 3.10349 58.6234 2.71479 59.3665C2.32412 60.1159 1.73084 58.6509 1.47842 60.616C2.11309 60.6887 2.76451 60.856 3.40278 60.9729C3.38044 65.2795 3.17521 69.5167 3.20325 73.8376C3.20736 74.3733 3.54856 73.8254 3.56176 74.3997C3.61597 76.8225 3.37274 78.9388 3.4696 81.4514C3.54588 83.3963 3.90714 85.529 3.99815 87.5627C3.27192 88.8049 3.51846 91.8227 3.45209 94.015C3.42916 94.7829 3.23519 94.7316 3.17191 95.2777C2.93788 97.3381 3.57966 96.3726 3.68065 96.9374C4.1117 99.3608 2.65908 99.5682 2.69497 102.425C2.69638 102.577 3.47069 104.427 3.51891 104.682C3.83333 106.301 3.2494 104.95 3.19219 105.963C3.08764 107.813 2.90272 109.099 3.12952 111.27C3.1967 111.903 3.67931 113.421 3.30601 114.651C3.25713 114.812 3.00119 114.723 2.98621 114.853C2.73636 117.209 3.54055 117.271 3.81291 118.617C4.08521 119.964 3.53006 122.044 3.37006 122.467C2.95616 123.574 3.19318 121.618 3.15256 121.558C2.66918 120.854 2.75241 122.371 2.71156 123.53C1.92305 123.698 1.97038 125.318 2.67239 124.731C2.74907 124.664 2.67554 123.763 2.71156 123.53C3.4852 124.547 3.58428 126.328 2.86133 128.296C2.52249 129.217 2.12742 128.346 2.27194 131.144C2.33719 132.413 2.88012 131.923 3.02814 133.043C3.36587 135.603 2.8594 138.929 2.9392 141.568C2.96817 142.526 3.26537 141.593 3.29541 142.247C3.37607 143.984 3.15307 145.516 3.2673 147.261C3.27803 147.419 3.58913 147.033 3.5931 147.575C3.62923 151.688 3.42996 155.269 3.42444 159.564C3.42421 159.749 3.42538 159.948 3.42767 160.157C3.33661 161.503 4.81667 163.046 5.91929 163.243C6.1806 163.322 6.45884 163.375 6.75511 163.393C10.1589 163.519 13.9915 163.849 16.7625 163.754C18.838 163.683 18.3826 163.372 19.272 163.16C20.9881 162.749 24.0258 163.485 24.4349 163.599C24.4474 163.603 22.6614 163.676 23.6144 163.836C24.1684 164.169 24.4148 163.601 24.4349 163.599C24.7035 163.673 28.2713 163.743 28.9797 163.684C29.3647 163.651 29.1493 163.357 29.35 163.345C34.1208 163.081 38.8998 163.007 43.7385 163.144C43.8237 163.15 43.6953 163.48 43.8956 163.49C46.6969 163.637 48.4905 163.233 50.8008 162.994C53.1107 162.754 54.9426 162.834 56.31 163.401C58.0529 163.329 60.5535 163.58 61.9924 163.731C63.4313 163.883 63.6321 163.241 63.7587 163.229C67.7076 162.823 69.9903 163.19 74.0871 163.247C76.0349 163.275 79.8985 163.182 82.0073 163.112C83.674 163.056 84.6781 163.206 86.2138 163.11C86.4216 163.097 86.2117 162.811 86.2751 162.8C87.989 162.458 87.1653 163.157 87.5192 163.282C88.8021 163.735 89.5948 163.977 91.7896 163.764C92.2959 163.715 93.7706 162.709 94.6934 162.65C95.8933 162.575 95.4405 162.936 96.6968 162.849C96.8043 162.841 96.7819 162.619 97.5573 162.629C101.156 162.671 105.081 162.801 108.821 162.778C109.332 162.776 108.677 162.423 109.415 162.414C112.879 162.373 116.675 162.386 120.05 162.551C120.88 162.593 120.36 162.84 120.54 162.913C121.647 163.357 123.217 162.712 123.476 162.7C129.654 162.39 134.383 162.973 140.68 162.696C141.023 162.679 143.661 161.988 144.839 162.581C144.919 162.62 146.084 163.227 147.114 162.812C147.178 162.786 146.452 162.474 147.718 162.506C148.985 162.537 151.023 162.329 152.764 162.672C153.315 162.78 154.618 163.385 156.262 162.903C156.369 162.869 158.907 161.778 159.813 162.531C159.96 162.655 159.806 163.451 161.768 163.043C162.143 162.964 161.463 162.786 162.45 162.675C163.964 162.504 165.969 162.718 167.829 162.363C168.154 162.3 169.535 161.759 170.642 162.17C170.816 162.234 170.486 162.5 171.071 162.53C173.853 162.672 176.766 162.495 179.591 162.678C180.591 162.743 180.08 163.173 181.123 163.288C182.166 163.403 184.267 163.514 185.358 163.318C186.45 163.121 185.258 162.436 186.893 162.381C187.103 162.374 187.313 162.368 187.522 162.362C188.683 162.299 189.682 161.321 189.722 160.157C189.798 156.227 189.936 152.301 189.969 148.358C189.978 147.305 189.733 148.178 189.728 146.626C189.71 140.906 189.48 131.029 190.001 126.065C190.418 122.088 190.736 127.093 190.905 124.054C190.986 122.587 190.19 121.001 190.165 120.647C189.91 117.188 190.263 114.784 190.155 111.671C190.132 111.029 189.81 111.659 189.794 111.112C189.738 109.243 189.882 107.279 189.856 105.494C189.843 104.692 189.597 104.84 189.616 104.103C189.658 102.339 189.762 100.779 189.993 99.0599C190.014 98.9032 190.321 99.96 190.332 98.655C190.35 96.5429 190.578 93.9213 190.342 91.4914C190.271 90.7704 189.708 90.7421 190.097 89.1924C190.178 88.8672 190.855 89.282 190.27 87.4767C190.173 87.1731 189.385 84.1404 189.893 82.6521C190.027 82.2595 190.58 81.2574 190.493 80.3904C190.48 80.2728 190.177 80.7438 190.147 80.0254C190.049 77.4934 190.081 74.8397 189.986 72.2384C189.96 71.5438 189.647 72.5784 189.618 71.5431C189.539 68.6961 189.619 65.1415 189.717 62.3575C189.754 61.3311 190.013 62.0406 190.041 61.9659C190.501 60.7649 189.881 60.0548 189.845 59.6562C189.628 57.1771 189.919 55.2893 189.842 53.0041C189.822 52.3735 189.526 52.8207 189.5 52.6951C189.242 51.3932 189.773 52.363 189.832 51.5389C189.997 49.2303 189.974 46.6567 189.936 44.322C189.922 43.4645 189.579 44.4283 189.57 43.6587C189.511 39.1036 189.544 34.3683 189.733 29.9229C189.769 29.0859 190.033 29.6125 190.093 29.4381C190.515 28.2357 189.94 26.4736 189.885 26.0681C189.635 24.2245 189.868 23.5083 189.824 21.8802C189.719 17.9994 189.701 13.6741 189.722 9.38988C189.772 8.18644 188.679 7.10175 187.522 7.10576C186.147 7.08839 184.818 7.07064 183.554 7.05456C173.77 6.93167 166.179 6.68063 156.849 6.74582C156.256 6.74963 156.854 7.10069 156.343 7.10848C149.744 7.19311 143.247 7.05593 136.635 7.15733C136.092 7.16502 136.874 7.49783 136.003 7.52137C134.217 7.57199 131.954 7.5539 130.148 7.44764C129.267 7.39644 130.448 7.11086 129.562 7.06516C127.497 6.9581 125.283 6.93439 123.163 6.98775C122.26 7.01118 123.622 7.35155 122.449 7.35548C114.457 7.38924 106.609 7.44786 98.5335 7.0071C97.9799 6.97683 97.4942 6.28506 96.3171 6.41772C96.2284 6.6097 96.2332 6.83554 96.1945 7.04074C84.5613 7.15128 73.0468 6.91146 61.3809 6.87439C60.8891 6.8729 61.7391 7.23944 60.7869 7.23843C55.2754 7.23301 49.9234 7.33455 44.2858 6.97024C43.7265 6.93461 44.0135 6.28978 42.3651 6.38731C42.0743 6.4051 39.5917 6.4911 38.9498 6.63108C38.8626 6.65219 39.3155 6.95317 38.5155 6.96194C33.8665 7.00765 28.9945 6.93893 24.3535 6.75504C23.6045 6.72478 24.4022 6.40426 23.8687 6.37993C20.0844 6.20979 15.9681 6.45344 12.3521 6.16243C9.93159 5.96648 10.8277 5.41244 9.54151 4.86708C9.35959 4.79014 7.86076 4.77795 7.78325 4.46064C7.58426 3.66276 8.31025 2.78908 8.01236 1.93861C7.94942 1.75542 5.9421 1.95272 7.13056 1.51005C7.21359 1.48042 8.66891 1.3335 9.02735 1.18333C9.27692 1.07951 8.8272 0.756812 9.33638 0.623905C9.84552 0.491123 10.405 0.761625 11.2492 0.605473C12.0929 0.447388 11.7219 0.0802844 13.407 0.0368285ZM68.4714 164.41C69.8037 164.718 70.0003 163.589 68.5593 163.86C68.4895 163.874 68.4026 164.395 68.4714 164.41ZM2.32356 69.4925C1.82555 71.2344 2.55782 72.4263 2.94243 71.1975C3.32663 69.9689 2.47452 68.9619 2.32356 69.4925ZM1.95997 51.4304C1.56732 53.4661 3.1684 53.7866 2.84474 51.6062C2.82645 51.4794 1.98277 51.3114 1.95997 51.4304ZM15.5063 4.71179C15.4879 4.69679 14.4105 4.68218 14.3847 4.69704C13.811 5.05563 15.9654 5.08461 15.5063 4.71179ZM1.56413 33.5068C1.34755 34.1423 1.59757 35.9721 1.86689 35.1824C2.08355 34.5468 1.83355 32.7153 1.56413 33.5068ZM137.973 165.615C137.994 165.632 138.767 165.647 138.751 165.552C138.699 165.246 137.624 165.332 137.973 165.615ZM4.53175 4.6773C2.60595 5.53682 1.58748 7.13071 1.10383 7.67323C0.859759 7.94677 0.698565 7.94975 0.712998 7.52559C0.740639 7.11796 0.944784 6.21743 1.89173 5.16366C2.24671 4.7969 1.93192 5.26573 1.73762 5.73506C1.54054 6.20819 1.44672 6.65117 1.80471 6.17507C3.11625 4.61751 4.30106 2.99212 6.71313 3.31981C6.92075 3.36434 6.31866 3.55515 5.74295 3.87435C5.15629 4.18288 4.63387 4.62954 4.52585 4.68213C4.52782 4.68052 4.52978 4.67891 4.53175 4.6773ZM69.2386 165.766C69.2652 165.781 70.3345 165.795 70.3602 165.781C70.9392 165.422 68.7851 165.393 69.2386 165.766ZM183.046 166.313C183.105 166.345 185.587 166.375 185.668 166.346C186.962 165.759 181.945 165.698 183.046 166.313ZM0.319476 159.449C-0.0411288 158.282 -0.083586 156.886 0.369244 155.956C0.345205 157.116 0.341664 158.283 0.319476 159.449Z" fill="#250000"/>
<g filter="url(#filter0_d_310_2296)">
<path d="M96.6608 51.2969C99.0171 51.2969 100.927 53.1908 100.927 55.5272V61.4573C100.927 63.6213 103.817 64.3889 104.908 62.5149L107.898 57.3793C109.076 55.356 111.686 54.6627 113.726 55.8309C115.767 56.9991 116.466 59.5863 115.288 61.6096L112.297 66.7457C111.206 68.6198 113.321 70.717 115.211 69.635L120.391 66.6696C122.432 65.5015 125.041 66.1947 126.219 68.218C127.398 70.2413 126.698 72.8285 124.658 73.9967L119.478 76.9619C117.588 78.0439 118.362 80.9089 120.545 80.9089H126.526C128.882 80.9089 130.792 82.8028 130.792 85.1391C130.792 87.4755 128.882 89.3694 126.526 89.3694H120.545C118.362 89.3694 117.588 92.2343 119.478 93.3163L124.658 96.2816C126.699 97.4498 127.398 100.037 126.22 102.06C125.041 104.084 122.432 104.777 120.392 103.609L115.212 100.644C113.322 99.5616 111.207 101.659 112.298 103.533L115.288 108.669C116.467 110.692 115.767 113.279 113.727 114.447C111.686 115.616 109.077 114.922 107.899 112.899L104.908 107.763C103.817 105.889 100.927 106.656 100.927 108.82V114.751C100.927 117.087 99.0171 118.981 96.6608 118.981C94.3045 118.981 92.3944 117.087 92.3944 114.751V108.82C92.3944 106.656 89.505 105.889 88.4137 107.763L85.4229 112.899C84.2447 114.922 81.6354 115.616 79.5948 114.447C77.5542 113.279 76.855 110.692 78.0332 108.669L81.0237 103.533C82.115 101.659 79.9998 99.5615 78.1097 100.644L72.93 103.609C70.8894 104.777 68.2801 104.084 67.102 102.06C65.9238 100.037 66.623 97.4498 68.6636 96.2816L73.8435 93.3163C75.7336 92.2343 74.9594 89.3694 72.7769 89.3694H66.7957C64.4394 89.3694 62.5293 87.4755 62.5293 85.1391C62.5293 82.8028 64.4394 80.9089 66.7957 80.9089H72.7769C74.9595 80.9089 75.7337 78.044 73.8436 76.9619L68.6637 73.9967C66.6231 72.8285 65.9239 70.2413 67.1021 68.218C68.2802 66.1947 70.8895 65.5015 72.9301 66.6696L78.1104 69.6351C80.0005 70.7171 82.1157 68.6198 81.0244 66.7458L78.0337 61.6096C76.8555 59.5863 77.5547 56.9991 79.5953 55.8309C81.6359 54.6627 84.2452 55.356 85.4234 57.3793L88.4137 62.5148C89.505 64.3889 92.3944 63.6213 92.3944 61.4573V55.5272C92.3944 53.1908 94.3045 51.2969 96.6608 51.2969ZM105.194 72.4483C105.194 70.112 103.284 68.218 100.927 68.218C98.571 68.218 96.6608 70.112 96.6608 72.4483C96.6608 74.7846 98.571 76.6786 100.927 76.6786C103.284 76.6786 105.194 74.7846 105.194 72.4483ZM88.1279 80.9089C88.1279 78.5725 86.2178 76.6786 83.8615 76.6786C81.5052 76.6786 79.5951 78.5725 79.5951 80.9089C79.5951 83.2452 81.5052 85.1391 83.8615 85.1391C86.2178 85.1391 88.1279 83.2452 88.1279 80.9089ZM92.3944 97.83C94.7507 97.83 96.6608 95.936 96.6608 93.5997C96.6608 91.2634 94.7507 89.3694 92.3944 89.3694C90.0381 89.3694 88.1279 91.2634 88.1279 93.5997C88.1279 95.936 90.0381 97.83 92.3944 97.83ZM113.727 85.1391C113.727 82.8028 111.816 80.9089 109.46 80.9089C107.104 80.9089 105.194 82.8028 105.194 85.1391C105.194 87.4755 107.104 89.3694 109.46 89.3694C111.816 89.3694 113.727 87.4755 113.727 85.1391Z" fill="#FCFFBA"/>
</g>
<defs>
<filter id="filter0_d_310_2296" x="51.2856" y="39.2986" width="95.2787" height="94.6986" filterUnits="userSpaceOnUse" color-interpolation-filters="sRGB">
<feFlood flood-opacity="0" result="BackgroundImageFix"/>
<feColorMatrix in="SourceAlpha" type="matrix" values="0 0 0 0 0 0 0 0 0 0 0 0 0 0 0 0 0 0 127 0" result="hardAlpha"/>
<feOffset dx="2.26382" dy="1.50922"/>
<feGaussianBlur stdDeviation="6.75374"/>
<feComposite in2="hardAlpha" operator="out"/>
<feColorMatrix type="matrix" values="0 0 0 0 0.721569 0 0 0 0 0.592157 0 0 0 0 0.14902 0 0 0 1 0"/>
<feBlend mode="normal" in2="BackgroundImageFix" result="effect1_dropShadow_310_2296"/>
<feBlend mode="normal" in="SourceGraphic" in2="effect1_dropShadow_310_2296" result="shape"/>
</filter>
<radialGradient id="paint0_radial_310_2296" cx="0" cy="0" r="1" gradientUnits="userSpaceOnUse" gradientTransform="translate(97.1387 84.7734) rotate(90) scale(81 96)">
<stop stop-color="#9F1B0B"/>
<stop offset="1" stop-color="#390A04"/>
</radialGradient>
</defs>
</svg>
