<svg width="211" height="183" viewBox="0 0 211 183" fill="none" xmlns="http://www.w3.org/2000/svg">
<path d="M1.13867 9.38988C1.13867 6.288 3.65324 3.77344 6.75512 3.77344H202.522C205.624 3.77344 208.139 6.28801 208.139 9.38988V175.157C208.139 178.259 205.624 180.773 202.522 180.773H6.75511C3.65324 180.773 1.13867 178.259 1.13867 175.157V9.38988Z" fill="url(#paint0_radial_310_2299)"/>
<path d="M13.9785 0.0368285C18.2282 -0.0615208 23.7987 0.0436382 28.0323 0.187975C29.3591 0.232741 28.6873 0.432847 29.6032 0.472759C31.3945 0.550562 33.0633 0.452422 34.8336 0.545106C35.4202 0.576802 34.69 0.89377 35.3051 0.919748C38.676 1.05983 41.8651 0.979094 45.2799 1.04647C62.1001 1.3789 78.634 1.49789 95.66 1.6423C101.274 1.68965 108.098 1.97731 113.897 1.85151C114.574 1.83654 114.17 1.55833 114.299 1.5354C116.319 1.18435 115.647 1.74602 116.966 1.82064C122.201 2.11528 128.022 2.14091 133.06 2.03354C135.203 1.98704 133.054 1.43443 135.212 1.74461C135.362 1.76556 134.818 2.06101 135.406 2.09252C136.739 2.16339 139.268 2.11058 140.301 2.13399C142.292 2.1806 142.621 2.17763 144.504 2.181C147.078 2.18817 150.14 2.33503 152.902 2.26809C153.492 2.25292 152.711 1.95006 153.651 1.89852C154.592 1.84706 157.082 1.87274 157.921 1.94414C158.761 2.01557 158.403 2.25362 158.552 2.30818C159.774 2.76872 162.654 2.13087 163.024 2.1151C169.78 1.84632 175.574 2.20968 181.915 2.20864C186.729 2.20709 191.877 2.08713 196.458 2.10358C198.575 2.11164 200.567 2.14127 202.522 2.17288C206.324 2.16204 209.688 5.45635 209.65 9.38988C209.65 9.55509 209.651 9.72092 209.652 9.88742C209.654 10.447 210.011 9.79128 210.015 10.4747C210.056 17.7352 210.017 24.9452 209.777 32.1744C209.752 32.8995 209.44 31.9651 209.397 32.6894C209.14 37.1241 208.522 44.1411 209.884 46.775C209.83 49.779 209.776 53.4259 209.501 56.1133C209.325 57.8461 208.984 56.1631 209.129 58.2917C209.162 58.7717 209.46 58.1475 209.486 58.8674C209.595 61.8985 209.498 65.2101 209.652 68.2086C209.684 68.8185 209.952 68.652 210 68.8248C210.39 70.2772 209.745 72.6949 209.698 73.222C209.349 77.2356 209.487 80.1666 209.478 83.9056C209.476 84.7732 209.835 83.7476 209.846 84.5825C209.897 88.9127 209.866 93.3983 209.707 97.6382C209.671 98.5814 209.365 97.7141 209.332 98.1647C209.19 100.152 209.768 100.592 209.643 102.498C209.618 102.9 209.356 102.674 209.327 102.747C208.876 103.894 209.515 104.891 209.529 105.186C209.722 108.918 209.055 111.304 209.149 114.909C209.161 115.34 209.492 114.368 209.506 115.58C209.597 123.658 209.506 132.2 209.241 140.196C209.201 141.439 208.952 140.552 208.921 140.63C208.442 141.905 209.084 142.73 209.108 143.135C209.282 146.333 208.744 149.32 209.509 151.493C209.354 159.401 209.436 167.288 209.394 175.157C209.468 178.827 206.119 182.075 202.522 181.912C199.864 181.849 197.208 181.758 194.555 181.622C194.384 181.614 194.69 181.298 194.349 181.283C190.247 181.106 191.035 181.597 188.32 182.199C187.637 182.35 185.557 181.624 185.372 181.571C184.702 181.374 185.397 180.904 185.173 180.866C183.315 180.568 183.618 182.124 181.111 182.124C181.033 182.122 181.362 181.835 181.152 181.807C180.498 181.717 179.85 181.831 179.211 181.733C177.747 181.505 177.225 180.748 174.99 181.188C174.707 181.246 175.139 182.128 172.901 182.087C172.009 182.069 168.06 182.084 166.953 182.027C165.848 181.97 166.607 181.686 166.528 181.673C163.55 181.297 164.679 181.141 163.187 180.584C161.695 180.03 162.108 181.353 161.5 181.5C160.891 181.648 158.707 181.337 158.17 181.23C157.634 181.122 158.303 180.941 157.826 180.88C154.664 180.481 156.438 181.537 155.396 181.747C152.939 182.244 151.026 181.263 148.777 181.166C148.169 181.14 148.665 181.364 148.123 181.385C145.977 181.465 144.686 181.158 142.245 181.439C141.845 181.485 139.872 182.075 138.594 181.642C138.413 181.58 138.927 181.335 138.012 181.28C136.646 181.198 134.184 181.145 132.716 181.226C131.631 181.287 132.874 181.69 131.509 181.565C130.903 181.509 132.027 181.273 130.887 181.188C129.754 181.102 126.855 181.113 125.752 181.121C124.651 181.129 125.254 181.435 125.165 181.455C124.627 181.573 122.514 181.721 122.327 181.72C112.909 181.758 104.225 181.242 95.0556 181.413C94.336 181.426 94.8153 181.748 94.7056 181.753C92.2421 181.888 94.1844 181.032 92.4635 180.745C92.7122 181.399 91.6964 181.28 89.9612 181.352C89.125 181.387 89.5804 181.64 89.5041 181.666C88.2641 182.051 87.4006 181.554 87.1782 181.453C86.357 181.079 85.4632 181.52 84.9044 181.271C84.3458 181.022 85.6312 180.655 83.967 180.659C83.5004 180.894 84.7359 181.505 83.4724 181.605C78.7051 181.98 69.8063 181.5 65.9731 181.45C62.1477 181.4 60.9121 181.443 58.683 181.359C54.6565 181.206 56.1321 181.66 53.6319 181.867C51.1245 182.075 52.3434 180.958 51.983 180.718C51.6292 180.478 51.2428 180.725 50.8027 180.593C50.364 180.461 51.3137 180.298 50.2819 180.248C49.2496 180.199 46.4271 180.626 46.0612 180.877C45.2876 181.409 46.5594 181.967 43.8278 181.771C43.6707 181.759 44.1806 181.466 43.579 181.436C38.8011 181.21 33.8374 181.196 29.0653 180.996C28.4092 180.968 28.9958 180.641 28.614 180.621C24.6365 180.412 26.0583 180.963 23.8783 181.575C24.3678 180.761 23.1623 180.262 20.1435 180.258C18.3289 180.254 18.6413 180.61 17.4676 180.861C17.1155 180.936 15.8314 180.692 15.5988 180.859C14.8315 181.406 16.041 182.018 12.9286 181.775C12.7921 181.763 13.2269 181.464 12.755 181.446C9.93987 181.336 9.41227 181.815 6.75511 181.944C6.48722 181.954 6.20191 181.948 5.89536 181.914C3.31939 181.89 -0.125612 178.505 0.228279 175.157C0.258964 174.437 0.283289 173.756 0.295053 173.146C1.21068 173.208 1.00101 170.428 0.369705 169.301C0.395551 167.391 0.359862 165.329 0.447122 163.483C0.476871 162.848 0.741969 163.265 0.770613 163.185C1.21995 161.957 0.605758 161.127 0.581679 160.715C0.347614 156.248 0.813121 152.608 0.358185 148.345C0.341799 148.193 -0.294222 147.948 0.170172 146.809C0.202184 146.735 0.491562 148.143 0.51394 146.137C0.536367 144.132 0.877321 140.35 0.582601 137.566C0.511649 136.892 -0.00467134 135.187 0.398736 133.819C0.453516 133.637 0.635928 133.837 0.737434 133.573C1.06087 132.723 0.418013 132.259 0.964155 131.259C1.51027 130.26 1.91927 128.18 1.54248 125.372C1.53152 125.283 1.02199 124.618 1.03005 123.735C1.04335 122.325 1.14949 120.323 1.14618 118.851C1.1444 118.147 0.828011 118.598 0.822224 118.475C0.64493 113.736 0.926991 110.363 1.04941 105.287C1.07247 104.356 0.641024 101.681 0.982127 99.8797C1.35553 97.9013 2.90882 99.9343 2.53876 95.387C2.39074 93.5529 0.420112 91.2309 1.4411 87.9348C1.1881 81.5424 1.71064 75.6308 1.3494 69.2206C1.33339 68.9323 0.783403 68.0207 0.790889 67.3431C0.803066 66.337 1.06012 65.7847 1.07705 65.0663C1.15448 62.0561 0.934555 59.3015 0.968763 56.3992C0.981192 55.2972 1.24698 55.6826 1.26184 54.3683C1.27645 53.0549 0.92645 52.1791 1.09549 50.3993C1.22433 49.055 1.93972 47.7111 2.02311 45.9268C1.31746 45.8588 1.33199 44.6334 1.14572 42.4553C1.10957 42.0366 0.86397 42.4856 0.834205 42.2875C0.707621 41.4815 0.911173 40.7356 0.773378 39.9703C0.740284 39.7841 0.4993 39.7753 0.458642 39.6231C0.103748 38.3289 0.645817 36.1968 0.740199 35.8305C1.09864 34.427 0.785215 33.7711 0.926368 32.6946C1.0675 31.6198 1.24393 33.2269 1.32958 31.9714C1.50673 29.369 1.46781 26.0253 1.47888 23.3823C1.48182 22.3278 1.16014 23.0472 1.15309 22.8963C1.0715 20.7157 1.41367 18.5105 0.772917 17.3014C2.42968 15.7895 0.61222 15.9864 0.943879 12.8695C0.970704 12.6239 1.75417 12.3116 1.86919 13.2542C1.98411 14.1968 1.7392 15.6262 1.9185 16.934C1.96058 17.2437 2.69474 19.0179 2.73921 19.2599C3.08677 21.1561 1.91599 21.4247 1.85168 21.5251C1.15772 22.6626 1.94864 24.8307 2.00329 25.4016C2.25371 28.0134 2.08905 30.2324 2.2678 32.4169C2.38332 33.8456 3.15023 33.9854 3.12675 35.1073C3.04917 38.8368 1.97932 40.1386 2.90695 43.653C3.10479 44.4066 3.943 43.6576 3.28389 46.3578C3.24234 46.5275 2.63938 48.5322 3.02077 49.6905C3.06886 49.8359 3.31314 49.8313 3.33366 50.0232C3.4664 51.3089 3.27179 52.1664 3.365 53.567C3.4582 54.9675 3.59715 56.6516 3.5143 58.2506C3.46475 59.2143 3.00962 60.4508 2.89819 60.9121C2.5772 62.2147 3.10349 63.6113 2.71479 64.4183C2.32412 65.2321 1.73084 63.6411 1.47842 65.7751C2.11309 65.8541 2.76451 66.0357 3.40278 66.1628C3.38044 70.8392 3.17521 75.4406 3.20325 80.1326C3.20736 80.7143 3.54856 80.1194 3.56176 80.743C3.61597 83.3741 3.37274 85.6721 3.4696 88.4006C3.54588 90.5126 3.90714 92.8285 3.99815 95.0369C3.27192 96.3859 3.51846 99.663 3.45209 102.044C3.42916 102.878 3.23519 102.822 3.17191 103.415C2.93788 105.652 3.57966 104.604 3.68065 105.217C4.1117 107.849 2.65908 108.074 2.69497 111.177C2.69638 111.341 3.47069 113.35 3.51891 113.627C3.83333 115.385 3.2494 113.918 3.19219 115.018C3.08764 117.027 2.90272 118.424 3.12952 120.781C3.1967 121.468 3.67931 123.117 3.30601 124.452C3.25713 124.628 3.00119 124.531 2.98621 124.672C2.73636 127.23 3.54055 127.298 3.81291 128.76C4.08521 130.222 3.53006 132.48 3.37006 132.94C2.95616 134.142 3.19318 132.019 3.15256 131.953C2.66918 131.189 2.75241 132.836 2.71156 134.094C1.92305 134.276 1.97038 136.036 2.67239 135.399C2.74907 135.326 2.67554 134.347 2.71156 134.094C3.4852 135.199 3.58428 137.133 2.86133 139.27C2.52249 140.27 2.12742 139.324 2.27194 142.362C2.33719 143.741 2.88012 143.208 3.02814 144.425C3.36587 147.204 2.8594 150.816 2.9392 153.682C2.96817 154.722 3.26537 153.709 3.29541 154.42C3.37607 156.306 3.15307 157.97 3.2673 159.864C3.27803 160.036 3.58913 159.617 3.5931 160.206C3.62923 164.672 3.42996 168.561 3.42444 173.224C3.42382 173.778 3.43373 174.44 3.44852 175.157C3.43087 176.509 4.62815 177.799 5.56632 178.125C5.92548 178.28 6.32363 178.384 6.75511 178.413C10.3142 178.549 14.2257 178.845 17.0915 178.754C19.3453 178.683 18.8509 178.372 19.8166 178.16C21.6802 177.749 24.9789 178.485 25.4231 178.599C25.4367 178.603 23.4972 178.676 24.5321 178.836C25.1337 179.169 25.4013 178.601 25.4231 178.599C25.7148 178.673 29.5892 178.743 30.3584 178.684C30.7764 178.651 30.5426 178.357 30.7605 178.345C35.9411 178.081 41.1308 178.007 46.3852 178.144C46.4776 178.15 46.3383 178.48 46.5559 178.49C49.5978 178.637 51.5455 178.233 54.0543 177.994C56.5627 177.754 58.552 177.834 60.0368 178.401C61.9295 178.329 64.6449 178.58 66.2074 178.731C67.77 178.883 67.988 178.241 68.1255 178.229C72.4136 177.823 74.8925 178.19 79.3413 178.247C81.4563 178.275 85.6519 178.182 87.9419 178.112C89.7518 178.056 90.8422 178.206 92.5098 178.11C92.7354 178.097 92.5075 177.811 92.5764 177.8C94.4375 177.458 93.5431 178.157 93.9274 178.282C95.3205 178.735 96.1813 178.977 98.5647 178.764C99.1144 178.715 100.716 177.709 101.718 177.65C103.021 177.575 102.529 177.936 103.893 177.849C104.01 177.841 103.986 177.619 104.828 177.629C108.736 177.671 112.998 177.801 117.059 177.778C117.614 177.776 116.903 177.423 117.704 177.414C121.466 177.373 125.588 177.386 129.253 177.551C130.155 177.593 129.589 177.84 129.785 177.913C130.987 178.357 132.692 177.712 132.973 177.7C139.682 177.39 144.817 177.973 151.656 177.696C152.028 177.679 154.893 176.988 156.171 177.581C156.259 177.62 157.524 178.227 158.642 177.812C158.711 177.786 157.923 177.474 159.299 177.506C160.674 177.537 162.887 177.329 164.778 177.672C165.376 177.78 166.791 178.385 168.576 177.903C168.693 177.869 171.449 176.778 172.432 177.531C172.592 177.655 172.425 178.451 174.556 178.043C174.963 177.964 174.224 177.786 175.296 177.675C176.94 177.504 179.117 177.718 181.137 177.363C181.49 177.3 182.989 176.759 184.192 177.17C184.381 177.234 184.023 177.5 184.658 177.53C187.679 177.672 190.842 177.495 193.909 177.678C194.996 177.743 194.44 178.173 195.573 178.288C196.706 178.403 198.987 178.514 200.173 178.318C201.358 178.121 200.063 177.436 201.839 177.381C202.067 177.374 202.295 177.368 202.522 177.362C203.685 177.307 204.682 176.313 204.709 175.157C204.781 170.636 204.934 166.122 204.969 161.586C204.978 160.443 204.733 161.391 204.728 159.706C204.71 153.494 204.48 142.769 205.001 137.378C205.418 133.059 205.736 138.494 205.905 135.194C205.986 133.601 205.19 131.879 205.165 131.494C204.91 127.738 205.263 125.128 205.155 121.748C205.132 121.05 204.81 121.734 204.794 121.14C204.738 119.111 204.882 116.978 204.856 115.039C204.843 114.169 204.597 114.329 204.616 113.529C204.658 111.614 204.762 109.92 204.993 108.053C205.014 107.883 205.321 109.03 205.332 107.613C205.35 105.319 205.578 102.473 205.342 99.834C205.271 99.051 204.708 99.0203 205.097 97.3374C205.178 96.9843 205.855 97.4348 205.27 95.4743C205.173 95.1447 204.385 91.8514 204.893 90.2353C205.027 89.8089 205.58 88.7207 205.493 87.7792C205.48 87.6515 205.177 88.163 205.147 87.3829C205.049 84.6333 205.081 81.7516 204.986 78.9269C204.96 78.1725 204.647 79.296 204.618 78.1718C204.539 75.0802 204.619 71.2202 204.717 68.197C204.754 67.0824 205.013 67.8529 205.041 67.7718C205.501 66.4676 204.881 65.6965 204.845 65.2636C204.628 62.5715 204.919 60.5215 204.842 58.04C204.822 57.3552 204.526 57.8408 204.5 57.7044C204.242 56.2907 204.773 57.3438 204.832 56.4489C204.997 53.9419 204.974 51.1472 204.936 48.612C204.922 47.6807 204.579 48.7274 204.57 47.8917C204.511 42.9453 204.544 37.8031 204.733 32.9758C204.769 32.0668 205.033 32.6387 205.093 32.4493C205.515 31.1436 204.94 29.2301 204.885 28.7897C204.635 26.7877 204.868 26.0101 204.824 24.2421C204.709 19.6382 204.699 14.4584 204.729 9.38988C204.782 8.17711 203.679 7.0927 202.522 7.09955C201.217 7.08419 199.953 7.06873 198.743 7.05456C188.119 6.93167 179.876 6.68063 169.745 6.74582C169.101 6.74963 169.75 7.10069 169.195 7.10848C162.029 7.19311 154.974 7.05593 147.793 7.15733C147.204 7.16502 148.053 7.49783 147.108 7.52137C145.168 7.57199 142.71 7.5539 140.749 7.44764C139.792 7.39644 141.076 7.11086 140.113 7.06516C137.87 6.9581 135.467 6.93439 133.164 6.98775C132.184 7.01118 133.662 7.35155 132.388 7.35548C123.711 7.38924 115.188 7.44786 106.419 7.0071C105.818 6.97683 105.29 6.28506 104.012 6.41772C103.916 6.6097 103.921 6.83554 103.879 7.04074C91.2461 7.15128 78.7423 6.91146 66.0742 6.87439C65.54 6.8729 66.4631 7.23944 65.429 7.23843C59.4441 7.23301 53.6323 7.33455 47.5103 6.97024C46.9029 6.93461 47.2145 6.28978 45.4245 6.38731C45.1088 6.4051 42.4128 6.4911 41.7158 6.63108C41.6211 6.65219 42.113 6.95317 41.2443 6.96194C36.1958 7.00765 30.9053 6.93893 25.8655 6.75504C25.0521 6.72478 25.9183 6.40426 25.339 6.37993C21.2296 6.20979 16.7597 6.45344 12.8329 6.16243C10.2045 5.96648 11.1776 5.41244 9.78091 4.86708C9.58335 4.79014 7.95575 4.77795 7.87158 4.46064C7.6555 3.66276 8.44386 2.78908 8.12037 1.93861C8.05203 1.75542 5.87225 1.95272 7.16282 1.51005C7.25298 1.48042 8.83333 1.3335 9.22257 1.18333C9.49358 1.07951 9.00522 0.756812 9.55815 0.623905C10.111 0.491123 10.7186 0.761625 11.6353 0.605473C12.5515 0.447388 12.1486 0.0802844 13.9785 0.0368285ZM73.243 179.41C74.6898 179.718 74.9033 178.589 73.3385 178.86C73.2627 178.874 73.1684 179.395 73.243 179.41ZM2.32356 75.4143C1.82555 77.3058 2.55782 78.6001 2.94243 77.2658C3.32663 75.9316 2.47452 74.838 2.32356 75.4143ZM1.95997 55.8003C1.56732 58.011 3.1684 58.359 2.84474 55.9913C2.82645 55.8536 1.98277 55.6711 1.95997 55.8003ZM16.2581 4.71179C16.2382 4.69679 15.0682 4.68218 15.0402 4.69704C14.4172 5.05563 16.7567 5.08461 16.2581 4.71179ZM1.56413 36.3368C1.34755 37.0269 1.59757 39.0139 1.86689 38.1564C2.08355 37.4661 1.83355 35.4773 1.56413 36.3368ZM148.716 180.615C148.739 180.632 149.578 180.647 149.561 180.552C149.504 180.246 148.337 180.332 148.716 180.615ZM4.355 4.765C2.29172 5.78497 1.37425 7.65881 0.950416 8.30188C0.733639 8.62922 0.572939 8.65415 0.546157 8.19582C0.536391 7.75674 0.655068 6.75251 1.59446 5.53185C1.95004 5.10641 1.63625 5.63181 1.45843 6.15209C1.2781 6.67654 1.21091 7.16095 1.54792 6.60924C2.80643 4.79421 4.09196 3.01036 6.70953 3.31984C6.9354 3.36501 6.27976 3.55131 5.65725 3.89067C5.02115 4.21777 4.46348 4.70837 4.34872 4.77035C4.35081 4.76857 4.3529 4.76678 4.355 4.765ZM74.0762 180.766C74.1051 180.781 75.2662 180.795 75.2941 180.781C75.9229 180.422 73.5837 180.393 74.0762 180.766ZM197.662 181.313C197.726 181.345 200.42 181.375 200.508 181.346C201.914 180.759 196.466 180.698 197.662 181.313ZM0.319476 173.099C-0.0411288 171.832 -0.083586 170.317 0.369244 169.307C0.345205 170.566 0.341664 171.833 0.319476 173.099Z" fill="#250000"/>
<g filter="url(#filter0_d_310_2299)">
<path d="M103.768 50.1909C104.185 49.4063 105.309 49.4053 105.727 50.1892L139.429 113.334C139.824 114.073 139.289 114.966 138.451 114.967L71.158 115.026C70.3204 115.027 69.7839 114.135 70.177 113.395L103.768 50.1909Z" fill="#F1F3B4"/>
<path d="M102.086 96.5083L101.605 89.426L102.005 80.023L108.308 80.4908L107.324 89.7386L105.794 96.7835L102.086 96.5083ZM103.586 103.927C102.721 103.863 102.012 103.537 101.459 102.949C100.906 102.361 100.659 101.672 100.718 100.881C100.775 100.114 101.12 99.4814 101.753 98.9816C102.389 98.4571 103.139 98.2269 104.004 98.2911C104.87 98.3553 105.578 98.6937 106.129 99.3063C106.682 99.8942 106.93 100.571 106.873 101.338C106.814 102.129 106.468 102.774 105.834 103.274C105.201 103.774 104.451 103.991 103.586 103.927Z" fill="#B89726"/>
</g>
<defs>
<filter id="filter0_d_310_2299" x="40.2449" y="17.8016" width="141.116" height="137.026" filterUnits="userSpaceOnUse" color-interpolation-filters="sRGB">
<feFlood flood-opacity="0" result="BackgroundImageFix"/>
<feColorMatrix in="SourceAlpha" type="matrix" values="0 0 0 0 0 0 0 0 0 0 0 0 0 0 0 0 0 0 127 0" result="hardAlpha"/>
<feOffset dx="6" dy="4"/>
<feGaussianBlur stdDeviation="17.9"/>
<feComposite in2="hardAlpha" operator="out"/>
<feColorMatrix type="matrix" values="0 0 0 0 0.721569 0 0 0 0 0.592157 0 0 0 0 0.14902 0 0 0 1 0"/>
<feBlend mode="normal" in2="BackgroundImageFix" result="effect1_dropShadow_310_2299"/>
<feBlend mode="normal" in="SourceGraphic" in2="effect1_dropShadow_310_2299" result="shape"/>
</filter>
<radialGradient id="paint0_radial_310_2299" cx="0" cy="0" r="1" gradientUnits="userSpaceOnUse" gradientTransform="translate(104.639 92.2734) rotate(134.838) scale(124.805 145.958)">
<stop stop-color="#B89726"/>
<stop offset="1" stop-color="#390A04"/>
</radialGradient>
</defs>
</svg>
