<svg width="196" height="169" viewBox="0 0 196 169" fill="none" xmlns="http://www.w3.org/2000/svg">
<path d="M1.13867 9.38987C1.13867 6.288 3.65324 3.77344 6.75512 3.77344H187.522C190.624 3.77344 193.139 6.28801 193.139 9.38988V161.157C193.139 164.259 190.624 166.773 187.522 166.773H6.75511C3.65323 166.773 1.13867 164.259 1.13867 161.157V9.38987Z" fill="#11A1AB"/>
<path d="M13.4261 0.0368285C17.3507 -0.0615208 22.4952 0.0436382 26.405 0.187975C27.6303 0.232741 27.0099 0.432847 27.8557 0.472759C29.5101 0.550562 31.0513 0.452422 32.6861 0.545106C33.2279 0.576802 32.5535 0.89377 33.1216 0.919748C36.2347 1.05983 39.1798 0.979094 42.3335 1.04647C57.8673 1.3789 73.1366 1.49789 88.8605 1.6423C94.0451 1.68965 100.348 1.97731 105.703 1.85151C106.328 1.83654 105.955 1.55833 106.074 1.5354C107.94 1.18435 107.319 1.74602 108.537 1.82064C113.372 2.11528 118.747 2.14091 123.4 2.03354C125.379 1.98704 123.395 1.43443 125.387 1.74461C125.526 1.76556 125.024 2.06101 125.566 2.09252C126.797 2.16339 129.133 2.11058 130.087 2.13399C131.926 2.1806 132.23 2.17763 133.969 2.181C136.346 2.18817 139.174 2.33503 141.725 2.26809C142.269 2.25292 141.548 1.95006 142.417 1.89852C143.286 1.84706 145.585 1.87274 146.36 1.94414C147.135 2.01557 146.805 2.25362 146.942 2.30818C148.071 2.76872 150.731 2.13087 151.073 2.1151C157.312 1.84632 162.662 2.20968 168.519 2.20864C172.965 2.20709 177.719 2.08713 181.949 2.10358C183.895 2.1116 185.726 2.14097 187.522 2.1724C191.229 2.17352 194.538 5.28489 194.648 9.15203C194.652 9.27421 194.665 9.34704 194.686 9.38988C194.776 9.53545 195.011 9.23156 195.015 9.7445C195.056 16.4497 195.017 23.1083 194.777 29.7846C194.752 30.4542 194.44 29.5913 194.397 30.2602C194.14 34.3558 193.522 40.8361 194.884 43.2685C194.83 46.0428 194.776 49.4108 194.501 51.8927C194.325 53.4929 193.984 51.9387 194.129 53.9044C194.162 54.3477 194.46 53.7712 194.486 54.4361C194.595 57.2354 194.498 60.2937 194.652 63.0629C194.684 63.6261 194.952 63.4723 195 63.6319C195.39 64.9732 194.745 67.2061 194.698 67.6929C194.349 71.3995 194.487 74.1063 194.478 77.5593C194.476 78.3606 194.835 77.4134 194.846 78.1845C194.897 82.1835 194.866 86.326 194.707 90.2417C194.671 91.1127 194.365 90.3117 194.332 90.728C194.19 92.5632 194.768 92.97 194.643 94.7301C194.618 95.1012 194.356 94.8921 194.327 94.9599C193.876 96.0192 194.515 96.9396 194.529 97.2121C194.722 100.659 194.055 102.862 194.149 106.192C194.161 106.59 194.492 105.692 194.506 106.811C194.597 114.271 194.506 122.161 194.241 129.545C194.201 130.693 193.952 129.873 193.921 129.945C193.442 131.123 194.084 131.885 194.108 132.259C194.282 135.212 193.744 137.971 194.509 139.977C194.358 147.055 194.431 154.114 194.398 161.157C194.474 164.829 191.12 168.081 187.522 167.912C185.068 167.849 182.615 167.758 180.164 167.622C180.006 167.614 180.289 167.298 179.974 167.283C176.186 167.106 176.913 167.597 174.406 168.199C173.775 168.35 171.854 167.624 171.684 167.571C171.065 167.374 171.707 166.904 171.5 166.866C169.784 166.568 170.063 168.124 167.749 168.124C167.676 168.122 167.98 167.835 167.786 167.807C167.183 167.717 166.584 167.831 165.993 167.733C164.642 167.505 164.16 166.748 162.095 167.188C161.834 167.246 162.233 168.128 160.167 168.087C159.343 168.069 155.696 168.084 154.674 168.027C153.653 167.97 154.354 167.686 154.281 167.673C151.53 167.297 152.573 167.141 151.195 166.584C149.817 166.03 150.199 167.353 149.637 167.5C149.075 167.648 147.058 167.337 146.562 167.23C146.067 167.122 146.685 166.941 146.244 166.88C143.324 166.481 144.963 167.537 144 167.747C141.732 168.244 139.965 167.263 137.888 167.166C137.326 167.14 137.784 167.364 137.284 167.385C135.302 167.465 134.11 167.158 131.855 167.439C131.486 167.485 129.663 168.075 128.483 167.642C128.316 167.58 128.791 167.335 127.946 167.28C126.684 167.198 124.411 167.145 123.054 167.226C122.053 167.287 123.201 167.69 121.94 167.565C121.38 167.509 122.418 167.273 121.366 167.188C120.319 167.102 117.642 167.113 116.624 167.121C115.607 167.129 116.164 167.435 116.081 167.455C115.584 167.573 113.633 167.721 113.461 167.72C104.763 167.758 96.7428 167.242 88.2747 167.413C87.6102 167.426 88.0529 167.748 87.9515 167.753C85.6765 167.888 87.4702 167.032 85.8809 166.745C86.1106 167.399 85.1725 167.28 83.5699 167.352C82.7977 167.387 83.2183 167.64 83.1478 167.666C82.0026 168.051 81.2052 167.554 80.9998 167.453C80.2414 167.079 79.416 167.52 78.8999 167.271C78.3841 167.022 79.5712 166.655 78.0343 166.659C77.6033 166.894 78.7443 167.505 77.5774 167.605C73.1748 167.98 64.9565 167.5 61.4165 167.45C57.8836 167.4 56.7426 167.443 54.6839 167.359C50.9654 167.206 52.3281 167.66 50.0192 167.867C47.7035 168.075 48.8293 166.958 48.4963 166.718C48.1696 166.478 47.8128 166.725 47.4063 166.593C47.0012 166.461 47.8783 166.298 46.9254 166.248C45.972 166.199 43.3654 166.626 43.0275 166.877C42.3131 167.409 43.4876 167.967 40.9649 167.771C40.8199 167.759 41.2907 167.466 40.7352 167.436C36.3226 167.21 31.7386 167.196 27.3314 166.996C26.7255 166.968 27.2673 166.641 26.9147 166.621C23.2413 166.412 24.5544 166.963 22.5412 167.575C22.9932 166.761 21.8799 166.262 19.092 166.258C17.4162 166.254 17.7047 166.61 16.6207 166.861C16.2955 166.936 15.1097 166.692 14.8948 166.859C14.1863 167.406 15.3032 168.018 12.4289 167.775C12.3028 167.763 12.7043 167.464 12.2686 167.446C9.67852 167.337 9.1852 167.811 6.75511 167.942C6.49818 167.954 6.22355 167.949 5.92773 167.918C3.30591 167.931 -0.130762 164.364 0.256431 161.157C0.273689 160.73 0.287183 160.324 0.295053 159.947C1.21068 160.004 1.00101 157.437 0.369705 156.396C0.395551 154.633 0.359862 152.728 0.447122 151.023C0.476871 150.437 0.741969 150.822 0.770613 150.748C1.21995 149.614 0.605758 148.847 0.581679 148.467C0.347614 144.341 0.813121 140.98 0.358185 137.043C0.341799 136.903 -0.294222 136.676 0.170172 135.624C0.202184 135.556 0.491562 136.856 0.51394 135.004C0.536367 133.152 0.877321 129.66 0.582601 127.088C0.511649 126.466 -0.00467134 124.891 0.398736 123.628C0.453516 123.46 0.635928 123.644 0.737434 123.401C1.06087 122.616 0.418013 122.187 0.964155 121.264C1.51027 120.341 1.91927 118.42 1.54248 115.827C1.53152 115.744 1.02199 115.13 1.03005 114.315C1.04335 113.013 1.14949 111.164 1.14618 109.805C1.1444 109.154 0.828011 109.571 0.822224 109.458C0.64493 105.081 0.926991 101.966 1.04941 97.2775C1.07247 96.418 0.641024 93.9481 0.982127 92.2842C1.35553 90.4571 2.90882 92.3346 2.53876 88.1351C2.39074 86.4413 0.420112 84.2968 1.4411 81.2529C1.1881 75.3494 1.71064 69.8898 1.3494 63.9699C1.33339 63.7037 0.783403 62.8619 0.790889 62.236C0.803066 61.3068 1.06012 60.7968 1.07705 60.1334C1.15448 57.3534 0.934555 54.8094 0.968763 52.1291C0.981192 51.1115 1.24698 51.4673 1.26184 50.2536C1.27645 49.0406 0.92645 48.2318 1.09549 46.5881C1.22433 45.3467 1.93972 44.1054 2.02311 42.4577C1.31746 42.3948 1.33199 41.2631 1.14572 39.2517C1.10957 38.865 0.86397 39.2796 0.834205 39.0967C0.707621 38.3524 0.911173 37.6635 0.773378 36.9567C0.740284 36.7848 0.4993 36.7767 0.458642 36.6361C0.103748 35.4409 0.645817 33.4718 0.740199 33.1336C1.09864 31.8374 0.785215 31.2317 0.926368 30.2375C1.0675 29.2449 1.24393 30.729 1.32958 29.5696C1.50673 27.1662 1.46781 24.0782 1.47888 21.6374C1.48182 20.6635 1.16014 21.328 1.15309 21.1886C1.0715 19.1747 1.41367 17.1382 0.772917 16.0216C2.42968 14.6253 0.61222 14.8071 0.943879 11.9286C0.970704 11.7018 1.75417 11.4134 1.86919 12.2839C1.98411 13.1544 1.7392 14.4745 1.9185 15.6822C1.96058 15.9683 2.69474 17.6067 2.73921 17.8303C3.08677 19.5814 1.91599 19.8295 1.85168 19.9222C1.15772 20.9728 1.94864 22.975 2.00329 23.5022C2.25371 25.9143 2.08905 27.9635 2.2678 29.981C2.38332 31.3004 3.15023 31.4295 3.12675 32.4657C3.04917 35.9099 1.97932 37.1121 2.90695 40.3577C3.10479 41.0537 3.943 40.3621 3.28389 42.8557C3.24234 43.0124 2.63938 44.8638 3.02077 45.9335C3.06886 46.0678 3.31314 46.0636 3.33366 46.2407C3.4664 47.4281 3.27179 48.22 3.365 49.5135C3.4582 50.8069 3.59715 52.3622 3.5143 53.8389C3.46475 54.7289 3.00962 55.8708 2.89819 56.2969C2.5772 57.4998 3.10349 58.7896 2.71479 59.5349C2.32412 60.2865 1.73084 58.8172 1.47842 60.7879C2.11309 60.8609 2.76451 61.0286 3.40278 61.1459C3.38044 65.4648 3.17521 69.7142 3.20325 74.0474C3.20736 74.5846 3.54856 74.0352 3.56176 74.6111C3.61597 77.0409 3.37274 79.1632 3.4696 81.683C3.54588 83.6335 3.90714 85.7723 3.99815 87.8118C3.27192 89.0576 3.51846 92.084 3.45209 94.2826C3.42916 95.0527 3.23519 95.0013 3.17191 95.549C2.93788 97.6152 3.57966 96.6469 3.68065 97.2134C4.1117 99.6437 2.65908 99.8518 2.69497 102.717C2.69638 102.869 3.47069 104.724 3.51891 104.98C3.83333 106.604 3.2494 105.249 3.19219 106.265C3.08764 108.121 2.90272 109.41 3.12952 111.587C3.1967 112.222 3.67931 113.745 3.30601 114.977C3.25713 115.139 3.00119 115.05 2.98621 115.18C2.73636 117.543 3.54055 117.605 3.81291 118.955C4.08521 120.306 3.53006 122.391 3.37006 122.816C2.95616 123.926 3.19318 121.965 3.15256 121.905C2.66918 121.199 2.75241 122.72 2.71156 123.882C1.92305 124.05 1.97038 125.676 2.67239 125.087C2.74907 125.02 2.67554 124.115 2.71156 123.882C3.4852 124.902 3.58428 126.689 2.86133 128.662C2.52249 129.585 2.12742 128.712 2.27194 131.518C2.33719 132.791 2.88012 132.299 3.02814 133.422C3.36587 135.99 2.8594 139.325 2.9392 141.972C2.96817 142.932 3.26537 141.997 3.29541 142.653C3.37607 144.395 3.15307 145.932 3.2673 147.681C3.27803 147.84 3.58913 147.452 3.5931 147.996C3.62923 152.121 3.42996 155.712 3.42444 160.019C3.42403 160.359 3.42827 160.743 3.4355 161.157C3.39083 162.474 4.65984 163.855 5.63825 164.153C5.97735 164.29 6.35067 164.385 6.75511 164.414C10.0346 164.551 13.6342 164.844 16.2734 164.754C18.3549 164.683 17.8982 164.372 18.7901 164.16C20.5112 163.749 23.5576 164.485 23.9678 164.599C23.9803 164.603 22.1892 164.676 23.1449 164.836C23.7006 165.169 23.9476 164.601 23.9678 164.599C24.2372 164.673 27.8152 164.743 28.5257 164.684C28.9117 164.651 28.6958 164.357 28.897 164.345C33.6814 164.081 38.4742 164.007 43.3267 164.144C43.4121 164.15 43.2834 164.48 43.4843 164.49C46.2936 164.637 48.0923 164.233 50.4093 163.994C52.7258 163.754 54.563 163.834 55.9343 164.401C57.6822 164.329 60.1898 164.58 61.6329 164.731C63.0759 164.883 63.2773 164.241 63.4042 164.229C67.3644 163.823 69.6537 164.19 73.7623 164.247C75.7156 164.275 79.5902 164.182 81.7051 164.112C83.3766 164.056 84.3836 164.206 85.9237 164.11C86.132 164.097 85.9216 163.811 85.9851 163.8C87.704 163.458 86.8779 164.157 87.2328 164.282C88.5194 164.735 89.3143 164.977 91.5155 164.764C92.0232 164.715 93.5021 163.709 94.4276 163.65C95.6309 163.575 95.1767 163.936 96.4367 163.849C96.5445 163.841 96.522 163.619 97.2996 163.629C100.909 163.671 104.844 163.801 108.595 163.778C109.108 163.776 108.451 163.423 109.191 163.414C112.665 163.373 116.472 163.386 119.856 163.551C120.689 163.593 120.167 163.84 120.348 163.913C121.458 164.357 123.033 163.712 123.292 163.7C129.488 163.39 134.231 163.973 140.546 163.696C140.89 163.679 143.536 162.988 144.716 163.581C144.797 163.62 145.965 164.227 146.998 163.812C147.062 163.786 146.334 163.474 147.604 163.506C148.874 163.537 150.919 163.329 152.665 163.672C153.217 163.78 154.524 164.385 156.172 163.903C156.28 163.869 158.825 162.778 159.734 163.531C159.881 163.655 159.727 164.451 161.695 164.043C162.071 163.964 161.388 163.786 162.379 163.675C163.896 163.504 165.907 163.718 167.773 163.363C168.098 163.3 169.483 162.759 170.594 163.17C170.768 163.234 170.437 163.5 171.024 163.53C173.814 163.672 176.735 163.495 179.568 163.678C180.571 163.743 180.059 164.173 181.104 164.288C182.15 164.403 184.258 164.514 185.352 164.318C186.447 164.121 185.251 163.436 186.891 163.381C187.102 163.374 187.312 163.368 187.522 163.362C188.683 163.3 189.682 162.32 189.722 161.157C189.797 157.208 189.936 153.262 189.969 149.299C189.978 148.243 189.733 149.118 189.728 147.562C189.71 141.825 189.48 131.92 190.001 126.942C190.418 122.954 190.736 127.973 190.905 124.925C190.986 123.454 190.19 121.863 190.165 121.508C189.91 118.04 190.263 115.629 190.155 112.507C190.132 111.863 189.81 112.495 189.794 111.946C189.738 110.072 189.882 108.103 189.856 106.312C189.843 105.508 189.597 105.656 189.616 104.917C189.658 103.148 189.762 101.584 189.993 99.8597C190.014 99.7025 190.321 100.762 190.332 99.4536C190.35 97.3355 190.578 94.7064 190.342 92.2695C190.271 91.5464 189.708 91.5181 190.097 89.9639C190.178 89.6378 190.855 90.0538 190.27 88.2433C190.173 87.9388 189.385 84.8975 189.893 83.4049C190.027 83.0112 190.58 82.0062 190.493 81.1367C190.48 81.0188 190.177 81.4911 190.147 80.7707C190.049 78.2314 190.081 75.5701 189.986 72.9614C189.96 72.2648 189.647 73.3023 189.618 72.2641C189.539 69.4089 189.619 65.8442 189.717 63.0522C189.754 62.0228 190.013 62.7343 190.041 62.6595C190.501 61.455 189.881 60.7429 189.845 60.3431C189.628 57.8569 189.919 55.9637 189.842 53.672C189.822 53.0395 189.526 53.488 189.5 53.3621C189.242 52.0564 189.773 53.029 189.832 52.2026C189.997 49.8873 189.974 47.3064 189.936 44.965C189.922 44.105 189.579 45.0716 189.57 44.2998C189.511 39.7317 189.544 34.9828 189.733 30.5247C189.769 29.6853 190.033 30.2134 190.093 30.0384C190.515 28.8327 189.94 27.0655 189.885 26.6588C189.635 24.8099 189.868 24.0917 189.824 22.4589C189.714 18.403 189.7 13.8629 189.725 9.38988C189.777 8.17975 188.677 7.09466 187.522 7.0992C186.327 7.08396 185.168 7.06862 184.06 7.05456C174.249 6.93167 166.635 6.68063 157.279 6.74582C156.684 6.74963 157.284 7.10069 156.771 7.10848C150.153 7.19311 143.638 7.05593 137.007 7.15733C136.462 7.16502 137.247 7.49783 136.373 7.52137C134.582 7.57199 132.312 7.5539 130.501 7.44764C129.618 7.39644 130.803 7.11086 129.913 7.06516C127.843 6.9581 125.623 6.93439 123.496 6.98775C122.591 7.01118 123.956 7.35155 122.78 7.35548C114.766 7.38924 106.895 7.44786 98.7964 7.0071C98.2412 6.97683 97.7541 6.28506 96.5736 6.41772C96.4846 6.6097 96.4895 6.83554 96.4507 7.04074C84.7841 7.15128 73.2367 6.91146 61.5374 6.87439C61.0441 6.8729 61.8966 7.23944 60.9416 7.23843C55.4144 7.23301 50.0471 7.33455 44.3933 6.97024C43.8324 6.93461 44.1202 6.28978 42.4671 6.38731C42.1755 6.4051 39.6857 6.4911 39.042 6.63108C38.9546 6.65219 39.4088 6.95317 38.6065 6.96194C33.9441 7.00765 29.0582 6.93893 24.4039 6.75504C23.6528 6.72478 24.4527 6.40426 23.9177 6.37993C20.1226 6.20979 15.9945 6.45344 12.3681 6.16243C9.94069 5.96648 10.8394 5.41244 9.54949 4.86708C9.36705 4.79014 7.86393 4.77795 7.78619 4.46064C7.58663 3.66276 8.3147 2.78908 8.01596 1.93861C7.95284 1.75542 5.93977 1.95272 7.13164 1.51005C7.2149 1.48042 8.67439 1.3335 9.03386 1.18333C9.28414 1.07951 8.83313 0.756812 9.34377 0.623905C9.85437 0.491123 10.4155 0.761625 11.262 0.605473C12.1082 0.447388 11.7361 0.0802844 13.4261 0.0368285ZM68.1304 165.41C69.4666 165.718 69.6637 164.589 68.2186 164.86C68.1486 164.874 68.0615 165.395 68.1304 165.41ZM2.32356 69.6899C1.82555 71.4368 2.55782 72.6321 2.94243 71.3998C3.32663 70.1676 2.47452 69.1577 2.32356 69.6899ZM1.95997 51.576C1.56732 53.6176 3.1684 53.939 2.84474 51.7524C2.82645 51.6252 1.98277 51.4567 1.95997 51.576ZM15.5313 4.71179C15.5129 4.69679 14.4324 4.68218 14.4066 4.69704C13.8312 5.05563 15.9918 5.08461 15.5313 4.71179ZM1.56413 33.6011C1.34755 34.2384 1.59757 36.0735 1.86689 35.2816C2.08355 34.6441 1.83355 32.8074 1.56413 33.6011ZM137.831 166.615C137.853 166.632 138.627 166.647 138.612 166.552C138.559 166.246 137.481 166.332 137.831 166.615ZM4.52581 4.68011C2.59531 5.54475 1.57953 7.14799 1.09761 7.69386C0.854267 7.96936 0.693038 7.97308 0.706266 7.54757C0.732711 7.139 0.934398 6.23477 1.88139 5.17557C2.23649 4.8069 1.92164 5.27757 1.72778 5.74858C1.53114 6.22342 1.4381 6.66777 1.79556 6.18917C3.10589 4.62312 4.29407 2.99272 6.71301 3.31981C6.92124 3.36436 6.31737 3.55503 5.74009 3.87488C5.15178 4.18399 4.62811 4.63208 4.5199 4.68496C4.52187 4.68334 4.52384 4.68173 4.52581 4.68011ZM68.8998 166.766C68.9266 166.781 69.9989 166.795 70.0246 166.781C70.6053 166.422 68.445 166.393 68.8998 166.766ZM183.033 167.313C183.092 167.345 185.581 167.375 185.662 167.346C186.96 166.759 181.929 166.698 183.033 167.313ZM0.319476 159.904C-0.0411288 158.734 -0.083586 157.334 0.369244 156.401C0.345205 157.564 0.341664 158.735 0.319476 159.904Z" fill="#250000"/>
<path d="M98.0469 108.088V107.678C98.0925 103.326 98.5482 99.863 99.414 97.2884C100.28 94.7138 101.51 92.629 103.105 91.0342C104.7 89.4393 106.614 87.9697 108.847 86.6254C110.191 85.8052 111.398 84.8369 112.469 83.7205C113.54 82.5813 114.383 81.2712 114.998 79.7902C115.636 78.3093 115.955 76.6688 115.955 74.8689C115.955 72.636 115.431 70.6994 114.383 69.0589C113.335 67.4185 111.934 66.154 110.179 65.2654C108.425 64.3768 106.477 63.9325 104.335 63.9325C102.467 63.9325 100.667 64.3198 98.9355 65.0945C97.2039 65.8692 95.7571 67.0881 94.5952 68.7513C93.4332 70.4146 92.761 72.5905 92.5788 75.279H83.9664C84.1487 71.4057 85.1512 68.0906 86.9739 65.3337C88.8194 62.5769 91.2459 60.4693 94.2534 59.0112C97.2837 57.553 100.644 56.8239 104.335 56.8239C108.345 56.8239 111.831 57.6213 114.793 59.2162C117.778 60.8111 120.079 62.9984 121.697 65.778C123.337 68.5577 124.157 71.7247 124.157 75.279C124.157 77.7852 123.77 80.0522 122.995 82.08C122.244 84.1078 121.15 85.9191 119.715 87.514C118.302 89.1089 116.593 90.5215 114.588 91.7518C112.583 93.005 110.977 94.3264 109.769 95.7163C108.562 97.0833 107.685 98.7124 107.138 100.603C106.591 102.495 106.295 104.853 106.249 107.678V108.088H98.0469ZM102.421 128.32C100.735 128.32 99.2887 127.716 98.0811 126.509C96.8736 125.301 96.2698 123.855 96.2698 122.169C96.2698 120.483 96.8736 119.036 98.0811 117.828C99.2887 116.621 100.735 116.017 102.421 116.017C104.107 116.017 105.554 116.621 106.762 117.828C107.969 119.036 108.573 120.483 108.573 122.169C108.573 123.285 108.288 124.31 107.719 125.244C107.172 126.179 106.431 126.93 105.497 127.5C104.586 128.047 103.561 128.32 102.421 128.32Z" fill="#FCFFBA"/>
</svg>
