<svg width="212" height="183" viewBox="0 0 212 183" fill="none" xmlns="http://www.w3.org/2000/svg">
<path d="M1.13867 9.38988C1.13867 6.288 3.65324 3.77344 6.75512 3.77344H203.522C206.624 3.77344 209.139 6.28801 209.139 9.38988V175.157C209.139 178.259 206.624 180.773 203.522 180.773H6.75511C3.65323 180.773 1.13867 178.259 1.13867 175.157V9.38988Z" fill="#11A1AB"/>
<path d="M13.9976 0.0368285C18.2584 -0.0615208 23.8437 0.0436382 28.0884 0.187975C29.4187 0.232741 28.7451 0.432847 29.6634 0.472759C31.4595 0.550562 33.1327 0.452422 34.9076 0.545106C35.4958 0.576802 34.7636 0.89377 35.3804 0.919748C38.7602 1.05983 41.9577 0.979094 45.3815 1.04647C62.2461 1.3789 78.8236 1.49789 95.8945 1.6423C101.523 1.68965 108.366 1.97731 114.18 1.85151C114.858 1.83654 114.454 1.55833 114.583 1.5354C116.608 1.18435 115.935 1.74602 117.257 1.82064C122.505 2.11528 128.342 2.14091 133.393 2.03354C135.542 1.98704 133.387 1.43443 135.551 1.74461C135.701 1.76556 135.156 2.06101 135.745 2.09252C137.082 2.16339 139.617 2.11058 140.653 2.13399C142.649 2.1806 142.979 2.17763 144.867 2.181C147.448 2.18817 150.518 2.33503 153.288 2.26809C153.879 2.25292 153.096 1.95006 154.039 1.89852C154.982 1.84706 157.479 1.87274 158.32 1.94414C159.162 2.01557 158.803 2.25362 158.952 2.30818C160.178 2.76872 163.065 2.13087 163.437 2.1151C170.21 1.84632 176.019 2.20968 182.377 2.20864C187.204 2.20709 192.365 2.08713 196.958 2.10358C199.256 2.1123 201.407 2.1463 203.522 2.18072C207.296 2.16784 210.681 5.43344 210.652 9.38988C210.652 9.40268 210.652 9.41548 210.652 9.42829C210.654 9.98929 211.011 9.33189 211.015 10.0171C211.056 17.2968 211.017 24.5258 210.777 31.7741C210.752 32.501 210.44 31.5642 210.397 32.2904C210.14 36.7368 209.522 43.7723 210.884 46.4131C210.83 49.425 210.776 53.0816 210.501 55.7761C210.325 57.5134 209.984 55.826 210.129 57.9602C210.162 58.4415 210.46 57.8156 210.486 58.5374C210.595 61.5765 210.498 64.8968 210.652 67.9033C210.684 68.5148 210.952 68.3478 211 68.5211C211.39 69.9773 210.745 72.4014 210.698 72.9299C210.349 76.9541 210.487 79.8928 210.478 83.6416C210.476 84.5116 210.835 83.4833 210.846 84.3204C210.897 88.662 210.866 93.1594 210.707 97.4105C210.671 98.3561 210.365 97.4865 210.332 97.9384C210.19 99.9309 210.768 100.373 210.643 102.283C210.618 102.686 210.356 102.459 210.327 102.533C209.876 103.683 210.515 104.682 210.529 104.978C210.722 108.72 210.055 111.112 210.149 114.727C210.161 115.159 210.492 114.184 210.506 115.4C210.597 123.499 210.506 132.064 210.241 140.08C210.201 141.327 209.952 140.437 209.921 140.516C209.442 141.794 210.084 142.621 210.108 143.027C210.282 146.234 209.744 149.229 210.509 151.407C210.353 159.344 210.436 167.26 210.394 175.157C210.468 178.827 207.119 182.074 203.522 181.912C200.857 181.849 198.194 181.758 195.534 181.622C195.362 181.614 195.669 181.298 195.328 181.283C191.214 181.106 192.004 181.597 189.283 182.199C188.597 182.35 186.512 181.624 186.327 181.571C185.655 181.374 186.352 180.904 186.127 180.866C184.264 180.568 184.568 182.124 182.055 182.124C181.976 182.122 182.306 181.835 182.095 181.807C181.44 181.717 180.79 181.831 180.149 181.733C178.681 181.505 178.159 180.748 175.917 181.188C175.633 181.246 176.067 182.128 173.823 182.087C172.928 182.069 168.969 182.084 167.859 182.027C166.751 181.97 167.512 181.686 167.433 181.673C164.447 181.297 165.579 181.141 164.083 180.584C162.587 180.03 163.002 181.353 162.392 181.5C161.781 181.648 159.591 181.337 159.053 181.23C158.516 181.122 159.186 180.941 158.708 180.88C155.538 180.481 157.316 181.537 156.272 181.747C153.809 182.244 151.89 181.263 149.635 181.166C149.025 181.14 149.523 181.364 148.98 181.385C146.828 181.465 145.534 181.158 143.086 181.439C142.685 181.485 140.706 182.075 139.425 181.642C139.244 181.58 139.759 181.335 138.842 181.28C137.473 181.198 135.004 181.145 133.531 181.226C132.444 181.287 133.69 181.69 132.322 181.565C131.714 181.509 132.841 181.273 131.698 181.188C130.562 181.102 127.656 181.113 126.55 181.121C125.446 181.129 126.05 181.435 125.961 181.455C125.421 181.573 123.303 181.721 123.116 181.72C113.673 181.758 104.966 181.242 95.7722 181.413C95.0507 181.426 95.5313 181.748 95.4212 181.753C92.9513 181.888 94.8987 181.032 93.1733 180.745C93.4227 181.399 92.4041 181.28 90.6643 181.352C89.826 181.387 90.2825 181.64 90.206 181.666C88.9627 182.051 88.097 181.554 87.874 181.453C87.0506 181.079 86.1545 181.52 85.5942 181.271C85.0342 181.022 86.323 180.655 84.6544 180.659C84.1865 180.894 85.4253 181.505 84.1584 181.605C79.3786 181.98 70.4562 181.5 66.613 181.45C62.7775 181.4 61.5387 181.443 59.3036 181.359C55.2665 181.206 56.746 181.66 54.2393 181.867C51.7252 182.075 52.9473 180.958 52.586 180.718C52.2312 180.478 51.8438 180.725 51.4025 180.593C50.9627 180.461 51.9149 180.298 50.8804 180.248C49.8453 180.199 47.0154 180.626 46.6485 180.877C45.8729 181.409 47.1482 181.967 44.4093 181.771C44.2518 181.759 44.763 181.466 44.1599 181.436C39.3693 181.21 34.3925 181.196 29.6078 180.996C28.95 180.968 29.5382 180.641 29.1553 180.621C25.1673 180.412 26.5929 180.963 24.4072 181.575C24.8979 180.761 23.6892 180.262 20.6626 180.258C18.8431 180.254 19.1564 180.61 17.9795 180.861C17.6265 180.936 16.339 180.692 16.1058 180.859C15.3365 181.406 16.5491 182.018 13.4286 181.775C13.2917 181.763 13.7276 181.464 13.2546 181.446C10.269 181.33 9.84957 181.872 6.75511 181.962C6.66403 181.965 6.57131 181.965 6.47698 181.963C3.72234 182.212 -0.159074 178.628 0.247153 175.157C0.268856 174.605 0.285822 174.081 0.295053 173.601C1.21068 173.663 1.00101 170.876 0.369705 169.746C0.395551 167.831 0.359862 165.763 0.447122 163.913C0.476871 163.276 0.741969 163.695 0.770613 163.614C1.21995 162.383 0.605758 161.55 0.581679 161.137C0.347614 156.658 0.813121 153.009 0.358185 148.734C0.341799 148.583 -0.294222 148.337 0.170172 147.194C0.202184 147.12 0.491562 148.532 0.51394 146.521C0.536367 144.51 0.877321 140.719 0.582601 137.927C0.511649 137.251 -0.00467134 135.542 0.398736 134.171C0.453516 133.988 0.635928 134.188 0.737434 133.924C1.06087 133.072 0.418013 132.606 0.964155 131.604C1.51027 130.602 1.91927 128.517 1.54248 125.701C1.53152 125.612 1.02199 124.945 1.03005 124.059C1.04335 122.646 1.14949 120.639 1.14618 119.163C1.1444 118.457 0.828011 118.909 0.822224 118.786C0.64493 114.035 0.926991 110.653 1.04941 105.563C1.07247 104.63 0.641024 101.948 0.982127 100.142C1.35553 98.158 2.90882 100.196 2.53876 95.6371C2.39074 93.7981 0.420112 91.47 1.4411 88.1652C1.1881 81.756 1.71064 75.8287 1.3494 69.4016C1.33339 69.1126 0.783403 68.1987 0.790889 67.5192C0.803066 66.5104 1.06012 65.9567 1.07705 65.2364C1.15448 62.2183 0.934555 59.4564 0.968763 56.5464C0.981192 55.4416 1.24698 55.8279 1.26184 54.5102C1.27645 53.1933 0.92645 52.3152 1.09549 50.5307C1.22433 49.1829 1.93972 47.8354 2.02311 46.0464C1.31746 45.9782 1.33199 44.7495 1.14572 42.5658C1.10957 42.146 0.86397 42.5961 0.834205 42.3975C0.707621 41.5894 0.911173 40.8416 0.773378 40.0742C0.740284 39.8875 0.4993 39.8787 0.458642 39.7261C0.103748 38.4285 0.645817 36.2907 0.740199 35.9235C1.09864 34.5163 0.785215 33.8587 0.926368 32.7793C1.0675 31.7018 1.24393 33.313 1.32958 32.0542C1.50673 29.445 1.46781 26.0925 1.47888 23.4425C1.48182 22.3852 1.16014 23.1065 1.15309 22.9552C1.0715 20.7688 1.41367 18.5578 0.772917 17.3455C2.42968 15.8296 0.61222 16.0271 0.943879 12.9019C0.970704 12.6557 1.75417 12.3426 1.86919 13.2877C1.98411 14.2327 1.7392 15.6659 1.9185 16.9772C1.96058 17.2877 2.69474 19.0665 2.73921 19.3092C3.08677 21.2103 1.91599 21.4797 1.85168 21.5803C1.15772 22.7209 1.94864 24.8947 2.00329 25.4671C2.25371 28.0858 2.08905 30.3106 2.2678 32.5009C2.38332 33.9334 3.15023 34.0735 3.12675 35.1984C3.04917 38.9377 1.97932 40.243 2.90695 43.7666C3.10479 44.5222 3.943 43.7713 3.28389 46.4786C3.24234 46.6487 2.63938 48.6587 3.02077 49.82C3.06886 49.9659 3.31314 49.9613 3.33366 50.1536C3.4664 51.4427 3.27179 52.3025 3.365 53.7068C3.4582 55.111 3.59715 56.7995 3.5143 58.4028C3.46475 59.3689 3.00962 60.6087 2.89819 61.0713C2.5772 62.3773 3.10349 63.7776 2.71479 64.5867C2.32412 65.4027 1.73084 63.8075 1.47842 65.9471C2.11309 66.0263 2.76451 66.2083 3.40278 66.3357C3.38044 71.0246 3.17521 75.638 3.20325 80.3425C3.20736 80.9257 3.54856 80.3293 3.56176 80.9545C3.61597 83.5925 3.37274 85.8966 3.4696 88.6322C3.54588 90.7498 3.90714 93.0718 3.99815 95.2861C3.27192 96.6386 3.51846 99.9243 3.45209 102.311C3.42916 103.147 3.23519 103.091 3.17191 103.686C2.93788 105.929 3.57966 104.878 3.68065 105.493C4.1117 108.132 2.65908 108.357 2.69497 111.468C2.69638 111.633 3.47069 113.648 3.51891 113.925C3.83333 115.688 3.2494 114.217 3.19219 115.32C3.08764 117.335 2.90272 118.734 3.12952 121.098C3.1967 121.787 3.67931 123.44 3.30601 124.779C3.25713 124.955 3.00119 124.858 2.98621 124.999C2.73636 127.564 3.54055 127.632 3.81291 129.098C4.08521 130.564 3.53006 132.828 3.37006 133.289C2.95616 134.495 3.19318 132.365 3.15256 132.3C2.66918 131.533 2.75241 133.184 2.71156 134.446C1.92305 134.629 1.97038 136.394 2.67239 135.754C2.74907 135.682 2.67554 134.7 2.71156 134.446C3.4852 135.554 3.58428 137.493 2.86133 139.635C2.52249 140.638 2.12742 139.69 2.27194 142.736C2.33719 144.118 2.88012 143.584 3.02814 144.804C3.36587 147.591 2.8594 151.213 2.9392 154.086C2.96817 155.129 3.26537 154.113 3.29541 154.826C3.37607 156.717 3.15307 158.385 3.2673 160.284C3.27803 160.456 3.58913 160.036 3.5931 160.627C3.62923 165.105 3.42996 169.004 3.42444 173.679C3.42395 174.114 3.42992 174.615 3.43963 175.157C3.39628 176.57 4.78015 177.97 5.82142 178.215C6.11111 178.312 6.42263 178.376 6.75511 178.395C10.449 178.521 14.5987 178.849 17.6025 178.754C19.8623 178.683 19.3666 178.372 20.3348 178.16C22.2033 177.749 25.5107 178.485 25.956 178.599C25.9696 178.603 24.0251 178.676 25.0627 178.836C25.6659 179.169 25.9341 178.601 25.956 178.599C26.2485 178.673 30.1331 178.743 30.9044 178.684C31.3235 178.651 31.0891 178.357 31.3076 178.345C36.5018 178.081 41.7052 178.007 46.9734 178.144C47.0661 178.15 46.9264 178.48 47.1445 178.49C50.1945 178.637 52.1473 178.233 54.6628 177.994C57.1777 177.754 59.1723 177.834 60.6611 178.401C62.5587 178.329 65.2813 178.58 66.8479 178.731C68.4146 178.883 68.6332 178.241 68.771 178.229C73.0704 177.823 75.5559 178.19 80.0164 178.247C82.1371 178.275 86.3436 178.182 88.6397 178.112C90.4544 178.056 91.5476 178.206 93.2197 178.11C93.4459 178.097 93.2174 177.811 93.2864 177.8C95.1525 177.458 94.2557 178.157 94.641 178.282C96.0378 178.735 96.9008 178.977 99.2905 178.764C99.8418 178.715 101.447 177.709 102.452 177.65C103.758 177.575 103.265 177.936 104.633 177.849C104.75 177.841 104.726 177.619 105.57 177.629C109.489 177.671 113.761 177.801 117.834 177.778C118.39 177.776 117.677 177.423 118.481 177.414C122.252 177.373 126.385 177.386 130.06 177.551C130.964 177.593 130.397 177.84 130.593 177.913C131.798 178.357 133.508 177.712 133.79 177.7C140.517 177.39 145.665 177.973 152.521 177.696C152.895 177.679 155.767 176.988 157.049 177.581C157.137 177.62 158.405 178.227 159.526 177.812C159.596 177.786 158.806 177.474 160.185 177.506C161.564 177.537 163.783 177.329 165.678 177.672C166.278 177.78 167.697 178.385 169.487 177.903C169.603 177.869 172.367 176.778 173.353 177.531C173.513 177.655 173.346 178.451 175.482 178.043C175.89 177.964 175.149 177.786 176.225 177.675C177.872 177.504 180.055 177.718 182.081 177.363C182.434 177.3 183.938 176.759 185.144 177.17C185.333 177.234 184.974 177.5 185.611 177.53C188.64 177.672 191.811 177.495 194.887 177.678C195.976 177.743 195.419 178.173 196.555 178.288C197.69 178.403 199.978 178.514 201.166 178.318C202.355 178.121 201.057 177.436 202.837 177.381C203.066 177.374 203.294 177.368 203.522 177.362C204.685 177.307 205.682 176.313 205.709 175.157C205.781 170.617 205.934 166.083 205.969 161.527C205.978 160.381 205.733 161.331 205.728 159.642C205.71 153.413 205.48 142.66 206.001 137.255C206.418 132.925 206.736 138.374 206.905 135.065C206.986 133.469 206.19 131.741 206.165 131.356C205.91 127.59 206.263 124.973 206.155 121.584C206.132 120.884 205.81 121.57 205.794 120.975C205.738 118.94 205.882 116.802 205.856 114.857C205.843 113.985 205.597 114.146 205.616 113.343C205.658 111.423 205.762 109.725 205.993 107.852C206.014 107.682 206.321 108.832 206.332 107.412C206.35 105.112 206.578 102.258 206.342 99.612C206.271 98.8271 205.708 98.7962 206.097 97.1089C206.178 96.7549 206.855 97.2065 206.27 95.2409C206.173 94.9104 205.385 91.6084 205.893 89.988C206.027 89.5605 206.58 88.4695 206.493 87.5255C206.48 87.3975 206.177 87.9103 206.147 87.1281C206.049 84.3713 206.081 81.482 205.986 78.6498C205.96 77.8935 205.647 79.02 205.618 77.8928C205.539 74.793 205.619 70.9229 205.717 67.8917C205.754 66.7742 206.013 67.5466 206.041 67.4653C206.501 66.1577 205.881 65.3845 205.845 64.9505C205.628 62.2513 205.919 60.1959 205.842 57.7079C205.822 57.0212 205.526 57.5081 205.5 57.3714C205.242 55.9539 205.773 57.0098 205.832 56.1126C205.997 53.599 205.974 50.7969 205.936 48.255C205.922 47.3213 205.579 48.3707 205.57 47.5327C205.511 42.5733 205.544 37.4176 205.733 32.5775C205.769 31.6662 206.033 32.2396 206.093 32.0496C206.515 30.7405 205.94 28.822 205.885 28.3804C205.635 26.3732 205.868 25.5935 205.824 23.8208C205.712 19.3441 205.699 14.3243 205.726 9.38988C205.777 8.18263 204.681 7.09863 203.522 7.1052C202.042 7.08801 200.611 7.07047 199.25 7.05456C188.598 6.93167 180.332 6.68063 170.175 6.74582C169.529 6.74963 170.18 7.10069 169.623 7.10848C162.438 7.19311 155.365 7.05593 148.165 7.15733C147.574 7.16502 148.426 7.49783 147.478 7.52137C145.533 7.57199 143.069 7.5539 141.102 7.44764C140.143 7.39644 141.43 7.11086 140.464 7.06516C138.216 6.9581 135.806 6.93439 133.497 6.98775C132.514 7.01118 133.997 7.35155 132.72 7.35548C124.019 7.38924 115.474 7.44786 106.682 7.0071C106.079 6.97683 105.55 6.28506 104.268 6.41772C104.172 6.6097 104.177 6.83554 104.135 7.04074C91.4689 7.15128 78.9322 6.91146 66.2306 6.87439C65.6951 6.8729 66.6206 7.23944 65.5838 7.23843C59.583 7.23301 53.7559 7.33455 47.6178 6.97024C47.0088 6.93461 47.3212 6.28978 45.5265 6.38731C45.21 6.4051 42.5069 6.4911 41.808 6.63108C41.7131 6.65219 42.2062 6.95317 41.3352 6.96194C36.2734 7.00765 30.9689 6.93893 25.9159 6.75504C25.1004 6.72478 25.9689 6.40426 25.388 6.37993C21.2678 6.20979 16.7861 6.45344 12.849 6.16243C10.2136 5.96648 11.1893 5.41244 9.78889 4.86708C9.59081 4.79014 7.95892 4.77795 7.87453 4.46064C7.65787 3.66276 8.44831 2.78908 8.12397 1.93861C8.05545 1.75542 5.86992 1.95272 7.16389 1.51005C7.25429 1.48042 8.83881 1.3335 9.22908 1.18333C9.5008 1.07951 9.01115 0.756812 9.56555 0.623905C10.1199 0.491123 10.729 0.761625 11.6481 0.605473C12.5668 0.447388 12.1629 0.0802844 13.9976 0.0368285ZM73.9021 179.41C75.3527 179.718 75.5668 178.589 73.9978 178.86C73.9218 178.874 73.8272 179.395 73.9021 179.41ZM2.32356 75.6117C1.82555 77.5081 2.55782 78.8059 2.94243 77.468C3.32663 76.1303 2.47452 75.0339 2.32356 75.6117ZM1.95997 55.946C1.56732 58.1625 3.1684 58.5114 2.84474 56.1374C2.82645 55.9994 1.98277 55.8164 1.95997 55.946ZM16.2832 4.71179C16.2632 4.69679 15.0901 4.68218 15.0621 4.69704C14.4374 5.05563 16.7831 5.08461 16.2832 4.71179ZM1.56413 36.4311C1.34755 37.1231 1.59757 39.1153 1.86689 38.2556C2.08355 37.5635 1.83355 35.5694 1.56413 36.4311ZM149.574 180.615C149.597 180.632 150.438 180.647 150.421 180.552C150.364 180.246 149.194 180.332 149.574 180.615ZM4.34917 4.76804C2.28142 5.79355 1.36802 7.67688 0.946505 8.32309C0.730809 8.65205 0.570174 8.6777 0.541877 8.21841C0.530699 7.77858 0.646235 6.77074 1.58503 5.54449C1.94051 5.11706 1.62686 5.64438 1.4497 6.16639C1.27008 6.6925 1.20389 7.1783 1.54002 6.62406C2.79612 4.80043 4.08502 3.01097 6.70941 3.31984C6.93589 3.36504 6.27846 3.55117 5.6544 3.89124C5.01666 4.21898 4.45786 4.7111 4.34287 4.77341C4.34497 4.77162 4.34707 4.76983 4.34917 4.76804ZM74.7374 180.766C74.7664 180.781 75.9306 180.795 75.9585 180.781C76.589 180.422 74.2437 180.393 74.7374 180.766ZM198.649 181.313C198.713 181.345 201.415 181.375 201.503 181.346C202.912 180.759 197.45 180.698 198.649 181.313ZM0.319476 173.554C-0.0411288 172.284 -0.083586 170.764 0.369244 169.752C0.345205 171.014 0.341664 172.285 0.319476 173.554Z" fill="#250000"/>
<path d="M98.0469 108.088V107.678C98.0925 103.326 98.5482 99.863 99.414 97.2884C100.28 94.7138 101.51 92.629 103.105 91.0342C104.7 89.4393 106.614 87.9697 108.847 86.6254C110.191 85.8052 111.398 84.8369 112.469 83.7205C113.54 82.5813 114.383 81.2712 114.998 79.7902C115.636 78.3093 115.955 76.6688 115.955 74.8689C115.955 72.636 115.431 70.6994 114.383 69.0589C113.335 67.4185 111.934 66.154 110.179 65.2654C108.425 64.3768 106.477 63.9325 104.335 63.9325C102.467 63.9325 100.667 64.3198 98.9355 65.0945C97.2039 65.8692 95.7571 67.0881 94.5952 68.7513C93.4332 70.4146 92.761 72.5905 92.5788 75.279H83.9664C84.1487 71.4057 85.1512 68.0906 86.9739 65.3337C88.8194 62.5769 91.2459 60.4693 94.2534 59.0112C97.2837 57.553 100.644 56.8239 104.335 56.8239C108.345 56.8239 111.831 57.6213 114.793 59.2162C117.778 60.8111 120.079 62.9984 121.697 65.778C123.337 68.5577 124.157 71.7247 124.157 75.279C124.157 77.7852 123.77 80.0522 122.995 82.08C122.244 84.1078 121.15 85.9191 119.715 87.514C118.302 89.1089 116.593 90.5215 114.588 91.7518C112.583 93.005 110.977 94.3264 109.769 95.7163C108.562 97.0833 107.685 98.7124 107.138 100.603C106.591 102.495 106.295 104.853 106.249 107.678V108.088H98.0469ZM102.421 128.32C100.735 128.32 99.2887 127.716 98.0811 126.509C96.8736 125.301 96.2698 123.855 96.2698 122.169C96.2698 120.483 96.8736 119.036 98.0811 117.828C99.2887 116.621 100.735 116.017 102.421 116.017C104.107 116.017 105.554 116.621 106.762 117.828C107.969 119.036 108.573 120.483 108.573 122.169C108.573 123.285 108.288 124.31 107.719 125.244C107.172 126.179 106.431 126.93 105.497 127.5C104.586 128.047 103.561 128.32 102.421 128.32Z" fill="#FCFFBA"/>
</svg>
